<svg xmlns="http://www.w3.org/2000/svg" xmlns:xlink="http://www.w3.org/1999/xlink" width="500" zoomAndPan="magnify" viewBox="0 0 375 374.999991" height="500" preserveAspectRatio="xMidYMid meet" version="1.0"><defs><clipPath id="fe6fc7db10"><path d="M 14.207031 0 L 374.957031 0 L 374.957031 360.75 L 14.207031 360.75 Z M 14.207031 0 " clip-rule="nonzero"/></clipPath></defs><rect x="-37.5" width="450" fill="#ffffff" y="-37.499999" height="449.999989" fill-opacity="1"/><rect x="-37.5" width="450" fill="#000000" y="-37.499999" height="449.999989" fill-opacity="1"/><g clip-path="url(#fe6fc7db10)"><path fill="#ffffff" d="M 119.878906 1.261719 C 100.683594 2.167969 87.578125 5.230469 76.121094 9.734375 C 64.265625 14.355469 54.214844 20.554688 44.214844 30.589844 C 34.214844 40.628906 28.054688 50.683594 23.46875 62.5625 C 19.027344 74.042969 16.015625 87.160156 15.167969 106.363281 C 14.320312 125.566406 14.132812 131.738281 14.226562 180.722656 C 14.320312 229.703125 14.539062 235.84375 15.46875 255.085938 C 16.386719 274.273438 19.4375 287.378906 23.941406 298.839844 C 28.566406 310.695312 34.761719 320.742188 44.800781 330.746094 C 54.839844 340.75 64.890625 346.894531 76.796875 351.488281 C 88.269531 355.921875 101.390625 358.945312 120.589844 359.785156 C 139.789062 360.628906 145.964844 360.820312 194.933594 360.726562 C 243.902344 360.632812 250.070312 360.417969 269.308594 359.503906 C 288.546875 358.59375 301.578125 355.519531 313.042969 351.039062 C 324.902344 346.398438 334.957031 340.214844 344.953125 330.171875 C 354.949219 320.128906 361.105469 310.066406 365.6875 298.179688 C 370.132812 286.710938 373.152344 273.589844 373.984375 254.40625 C 374.828125 235.152344 375.023438 229.003906 374.929688 180.027344 C 374.835938 131.054688 374.617188 124.914062 373.703125 105.679688 C 372.792969 86.441406 369.738281 73.378906 365.238281 61.910156 C 360.601562 50.054688 354.414062 40.015625 344.378906 30.003906 C 334.34375 19.992188 324.269531 13.84375 312.390625 9.269531 C 300.914062 4.828125 287.800781 1.800781 268.601562 0.96875 C 249.402344 0.140625 243.222656 -0.0703125 194.234375 0.0234375 C 145.25 0.117188 139.117188 0.324219 119.878906 1.261719 M 121.984375 327.335938 C 104.398438 326.574219 94.847656 323.652344 88.484375 321.203125 C 80.058594 317.957031 74.054688 314.03125 67.710938 307.753906 C 61.371094 301.472656 57.476562 295.445312 54.183594 287.039062 C 51.714844 280.675781 48.738281 271.136719 47.914062 253.550781 C 47.019531 234.542969 46.832031 228.835938 46.726562 180.679688 C 46.625 132.523438 46.808594 126.820312 47.640625 107.804688 C 48.390625 90.234375 51.332031 80.675781 53.773438 74.316406 C 57.019531 65.875 60.929688 59.882812 67.226562 53.546875 C 73.519531 47.207031 79.527344 43.304688 87.945312 40.015625 C 94.300781 37.53125 103.839844 34.582031 121.417969 33.746094 C 140.441406 32.84375 146.140625 32.664062 194.289062 32.558594 C 242.4375 32.453125 248.152344 32.632812 267.183594 33.46875 C 284.753906 34.234375 294.316406 37.144531 300.671875 39.601562 C 309.101562 42.851562 315.101562 46.75 321.4375 53.054688 C 327.777344 59.363281 331.683594 65.347656 334.972656 73.78125 C 337.460938 80.117188 340.410156 89.652344 341.242188 107.242188 C 342.144531 126.265625 342.351562 131.96875 342.4375 180.117188 C 342.523438 228.261719 342.355469 233.980469 341.523438 252.988281 C 340.753906 270.574219 337.839844 280.125 335.390625 286.496094 C 332.144531 294.921875 328.230469 300.925781 321.929688 307.261719 C 315.632812 313.597656 309.632812 317.5 301.210938 320.789062 C 294.863281 323.269531 285.3125 326.226562 267.75 327.0625 C 248.726562 327.957031 243.027344 328.144531 194.859375 328.25 C 146.691406 328.355469 141.011719 328.160156 121.988281 327.335938 M 269.03125 83.972656 C 269.03125 84.679688 269.066406 85.386719 269.136719 86.09375 C 269.207031 86.796875 269.3125 87.5 269.453125 88.195312 C 269.59375 88.890625 269.765625 89.574219 269.972656 90.253906 C 270.179688 90.933594 270.417969 91.597656 270.691406 92.253906 C 270.964844 92.90625 271.265625 93.546875 271.601562 94.171875 C 271.9375 94.796875 272.304688 95.402344 272.699219 95.992188 C 273.09375 96.582031 273.515625 97.148438 273.964844 97.695312 C 274.417969 98.242188 274.894531 98.765625 275.394531 99.265625 C 275.898438 99.769531 276.421875 100.242188 276.972656 100.691406 C 277.519531 101.140625 278.089844 101.5625 278.679688 101.953125 C 279.269531 102.347656 279.878906 102.710938 280.503906 103.042969 C 281.128906 103.375 281.769531 103.675781 282.425781 103.949219 C 283.082031 104.21875 283.75 104.453125 284.425781 104.660156 C 285.105469 104.863281 285.792969 105.035156 286.488281 105.171875 C 287.183594 105.308594 287.886719 105.410156 288.589844 105.480469 C 289.296875 105.546875 290.003906 105.582031 290.714844 105.582031 C 291.421875 105.578125 292.128906 105.542969 292.835938 105.472656 C 293.539062 105.402344 294.238281 105.296875 294.933594 105.15625 C 295.628906 105.019531 296.316406 104.84375 296.996094 104.636719 C 297.671875 104.429688 298.339844 104.191406 298.992188 103.917969 C 299.648438 103.644531 300.289062 103.339844 300.914062 103.007812 C 301.535156 102.671875 302.144531 102.304688 302.734375 101.910156 C 303.320312 101.515625 303.890625 101.09375 304.4375 100.640625 C 304.984375 100.191406 305.507812 99.714844 306.007812 99.214844 C 306.507812 98.710938 306.984375 98.183594 307.429688 97.636719 C 307.878906 97.085938 308.300781 96.519531 308.695312 95.925781 C 309.085938 95.335938 309.449219 94.730469 309.78125 94.105469 C 310.117188 93.476562 310.417969 92.835938 310.6875 92.179688 C 310.957031 91.527344 311.195312 90.859375 311.398438 90.179688 C 311.605469 89.5 311.773438 88.8125 311.910156 88.117188 C 312.046875 87.421875 312.152344 86.722656 312.21875 86.015625 C 312.289062 85.3125 312.320312 84.605469 312.320312 83.894531 C 312.316406 83.1875 312.28125 82.480469 312.210938 81.773438 C 312.140625 81.066406 312.035156 80.367188 311.894531 79.671875 C 311.753906 78.976562 311.582031 78.289062 311.375 77.613281 C 311.167969 76.933594 310.929688 76.269531 310.65625 75.613281 C 310.382812 74.960938 310.078125 74.320312 309.742188 73.695312 C 309.410156 73.070312 309.042969 72.464844 308.648438 71.875 C 308.253906 71.285156 307.832031 70.71875 307.378906 70.171875 C 306.929688 69.625 306.453125 69.101562 305.949219 68.601562 C 305.449219 68.101562 304.921875 67.625 304.375 67.175781 C 303.824219 66.726562 303.253906 66.308594 302.664062 65.914062 C 302.074219 65.523438 301.464844 65.160156 300.839844 64.828125 C 300.214844 64.492188 299.574219 64.191406 298.917969 63.921875 C 298.261719 63.652344 297.59375 63.414062 296.917969 63.210938 C 296.238281 63.003906 295.550781 62.835938 294.855469 62.699219 C 294.160156 62.5625 293.457031 62.457031 292.753906 62.390625 C 292.046875 62.324219 291.339844 62.289062 290.632812 62.289062 C 289.921875 62.292969 289.214844 62.328125 288.511719 62.398438 C 287.804688 62.46875 287.105469 62.574219 286.410156 62.714844 C 285.714844 62.855469 285.027344 63.027344 284.351562 63.234375 C 283.671875 63.441406 283.007812 63.683594 282.351562 63.953125 C 281.699219 64.226562 281.058594 64.53125 280.433594 64.867188 C 279.808594 65.199219 279.203125 65.566406 278.617188 65.960938 C 278.027344 66.355469 277.460938 66.777344 276.910156 67.230469 C 276.363281 67.679688 275.839844 68.15625 275.339844 68.660156 C 274.839844 69.160156 274.367188 69.6875 273.917969 70.234375 C 273.46875 70.785156 273.046875 71.351562 272.65625 71.941406 C 272.261719 72.53125 271.898438 73.140625 271.566406 73.765625 C 271.234375 74.390625 270.933594 75.03125 270.664062 75.6875 C 270.390625 76.34375 270.15625 77.007812 269.949219 77.6875 C 269.746094 78.367188 269.574219 79.054688 269.4375 79.75 C 269.300781 80.445312 269.199219 81.144531 269.128906 81.851562 C 269.0625 82.554688 269.027344 83.261719 269.03125 83.972656 M 101.964844 180.554688 C 102.066406 231.710938 143.609375 273.085938 194.753906 272.988281 C 245.898438 272.890625 287.300781 231.347656 287.203125 180.195312 C 287.105469 129.039062 245.550781 87.65625 194.402344 87.757812 C 143.25 87.855469 101.867188 129.410156 101.964844 180.554688 M 134.457031 180.492188 C 134.453125 178.519531 134.542969 176.554688 134.734375 174.597656 C 134.921875 172.636719 135.207031 170.691406 135.585938 168.757812 C 135.96875 166.824219 136.441406 164.917969 137.007812 163.03125 C 137.578125 161.144531 138.238281 159.292969 138.988281 157.472656 C 139.738281 155.652344 140.574219 153.871094 141.5 152.132812 C 142.421875 150.394531 143.429688 148.707031 144.523438 147.066406 C 145.613281 145.425781 146.78125 143.84375 148.027344 142.320312 C 149.273438 140.796875 150.59375 139.335938 151.980469 137.941406 C 153.371094 136.542969 154.824219 135.222656 156.347656 133.96875 C 157.867188 132.714844 159.441406 131.542969 161.078125 130.445312 C 162.714844 129.347656 164.398438 128.332031 166.132812 127.402344 C 167.867188 126.46875 169.644531 125.625 171.460938 124.867188 C 173.28125 124.109375 175.128906 123.445312 177.015625 122.867188 C 178.898438 122.292969 180.804688 121.8125 182.734375 121.425781 C 184.664062 121.035156 186.609375 120.742188 188.570312 120.546875 C 190.527344 120.351562 192.492188 120.25 194.460938 120.246094 C 196.429688 120.242188 198.394531 120.335938 200.355469 120.523438 C 202.316406 120.710938 204.261719 120.996094 206.195312 121.378906 C 208.125 121.757812 210.035156 122.230469 211.921875 122.800781 C 213.804688 123.367188 215.660156 124.027344 217.480469 124.777344 C 219.300781 125.527344 221.082031 126.363281 222.820312 127.289062 C 224.558594 128.214844 226.246094 129.222656 227.886719 130.3125 C 229.527344 131.402344 231.109375 132.570312 232.632812 133.816406 C 234.15625 135.0625 235.617188 136.382812 237.011719 137.773438 C 238.40625 139.160156 239.730469 140.617188 240.984375 142.136719 C 242.234375 143.65625 243.410156 145.234375 244.507812 146.867188 C 245.605469 148.503906 246.621094 150.1875 247.550781 151.921875 C 248.484375 153.65625 249.328125 155.433594 250.085938 157.253906 C 250.84375 159.070312 251.507812 160.921875 252.082031 162.804688 C 252.660156 164.6875 253.140625 166.59375 253.527344 168.523438 C 253.917969 170.457031 254.210938 172.398438 254.40625 174.359375 C 254.601562 176.320312 254.703125 178.285156 254.707031 180.253906 C 254.710938 182.222656 254.617188 184.1875 254.429688 186.144531 C 254.242188 188.105469 253.957031 190.050781 253.574219 191.984375 C 253.195312 193.917969 252.722656 195.824219 252.152344 197.710938 C 251.585938 199.597656 250.925781 201.449219 250.175781 203.269531 C 249.425781 205.089844 248.589844 206.871094 247.664062 208.609375 C 246.738281 210.347656 245.730469 212.039062 244.640625 213.675781 C 243.550781 215.316406 242.382812 216.898438 241.136719 218.421875 C 239.890625 219.949219 238.570312 221.40625 237.179688 222.804688 C 235.792969 224.199219 234.335938 225.523438 232.816406 226.773438 C 231.296875 228.027344 229.71875 229.199219 228.085938 230.296875 C 226.449219 231.394531 224.765625 232.410156 223.03125 233.34375 C 221.292969 234.273438 219.519531 235.117188 217.699219 235.875 C 215.882812 236.632812 214.03125 237.296875 212.148438 237.875 C 210.265625 238.449219 208.359375 238.929688 206.429688 239.320312 C 204.496094 239.707031 202.550781 240 200.59375 240.195312 C 198.632812 240.394531 196.667969 240.492188 194.699219 240.496094 C 192.730469 240.5 190.765625 240.410156 188.804688 240.21875 C 186.847656 240.03125 184.898438 239.746094 182.96875 239.367188 C 181.035156 238.988281 179.125 238.511719 177.242188 237.945312 C 175.355469 237.378906 173.5 236.71875 171.679688 235.96875 C 169.859375 235.21875 168.082031 234.382812 166.339844 233.457031 C 164.601562 232.53125 162.914062 231.523438 161.273438 230.433594 C 159.632812 229.34375 158.050781 228.171875 156.527344 226.925781 C 155.003906 225.679688 153.542969 224.363281 152.148438 222.972656 C 150.753906 221.582031 149.429688 220.128906 148.175781 218.609375 C 146.925781 217.089844 145.75 215.511719 144.652344 213.875 C 143.554688 212.242188 142.539062 210.554688 141.609375 208.820312 C 140.675781 207.085938 139.832031 205.308594 139.074219 203.492188 C 138.320312 201.675781 137.652344 199.824219 137.078125 197.941406 C 136.5 196.054688 136.019531 194.148438 135.632812 192.21875 C 135.246094 190.289062 134.953125 188.34375 134.753906 186.382812 C 134.558594 184.425781 134.457031 182.460938 134.457031 180.492188 " fill-opacity="1" fill-rule="nonzero"/></g></svg>