<svg xmlns="http://www.w3.org/2000/svg" xmlns:xlink="http://www.w3.org/1999/xlink" width="500" zoomAndPan="magnify" viewBox="0 0 375 374.999991" height="500" preserveAspectRatio="xMidYMid meet" version="1.0"><rect x="-37.5" width="450" fill="#ffffff" y="-37.499999" height="449.999989" fill-opacity="1"/><rect x="-37.5" width="450" fill="#ffffff" y="-37.499999" height="449.999989" fill-opacity="1"/><path fill="#000000" d="M 329.785156 325.539062 L 270.796875 325.539062 L 270.796875 233.195312 C 270.796875 211.175781 270.402344 182.828125 240.117188 182.828125 C 209.394531 182.828125 204.695312 206.820312 204.695312 231.59375 L 204.695312 325.53125 L 145.710938 325.53125 L 145.710938 135.636719 L 202.335938 135.636719 L 202.335938 161.589844 L 203.128906 161.589844 C 204.539062 159.179688 206.105469 156.875 207.828125 154.675781 C 209.550781 152.476562 211.410156 150.402344 213.410156 148.453125 C 215.414062 146.507812 217.539062 144.703125 219.785156 143.039062 C 222.027344 141.378906 224.375 139.875 226.824219 138.53125 C 229.273438 137.1875 231.800781 136.015625 234.40625 135.011719 C 237.015625 134.007812 239.675781 133.183594 242.394531 132.542969 C 245.113281 131.898438 247.863281 131.441406 250.644531 131.167969 C 253.421875 130.894531 256.210938 130.8125 259 130.914062 C 318.785156 130.914062 329.808594 170.226562 329.808594 221.367188 Z M 79.152344 109.679688 C 78.03125 109.679688 76.914062 109.625 75.796875 109.515625 C 74.683594 109.40625 73.574219 109.242188 72.476562 109.023438 C 71.375 108.804688 70.289062 108.535156 69.214844 108.207031 C 68.144531 107.882812 67.089844 107.507812 66.054688 107.078125 C 65.019531 106.648438 64.003906 106.171875 63.015625 105.644531 C 62.027344 105.113281 61.066406 104.539062 60.136719 103.917969 C 59.203125 103.292969 58.304688 102.628906 57.4375 101.917969 C 56.570312 101.207031 55.738281 100.453125 54.945312 99.664062 C 54.152344 98.871094 53.402344 98.039062 52.691406 97.175781 C 51.980469 96.308594 51.3125 95.410156 50.6875 94.476562 C 50.066406 93.546875 49.488281 92.585938 48.960938 91.597656 C 48.433594 90.609375 47.953125 89.597656 47.523438 88.5625 C 47.09375 87.527344 46.71875 86.472656 46.390625 85.402344 C 46.066406 84.328125 45.792969 83.242188 45.574219 82.144531 C 45.355469 81.042969 45.191406 79.9375 45.082031 78.820312 C 44.972656 77.707031 44.917969 76.589844 44.917969 75.46875 C 44.917969 74.347656 44.972656 73.230469 45.082031 72.113281 C 45.191406 71 45.355469 69.890625 45.574219 68.792969 C 45.792969 67.691406 46.0625 66.605469 46.390625 65.535156 C 46.714844 64.460938 47.089844 63.40625 47.519531 62.371094 C 47.949219 61.335938 48.429688 60.324219 48.957031 59.335938 C 49.484375 58.347656 50.058594 57.386719 50.683594 56.457031 C 51.304688 55.523438 51.972656 54.625 52.683594 53.757812 C 53.394531 52.890625 54.144531 52.0625 54.9375 51.269531 C 55.730469 50.476562 56.558594 49.726562 57.425781 49.015625 C 58.292969 48.304688 59.191406 47.636719 60.125 47.011719 C 61.054688 46.390625 62.015625 45.816406 63.003906 45.285156 C 63.992188 44.757812 65.007812 44.28125 66.042969 43.851562 C 67.078125 43.421875 68.132812 43.042969 69.203125 42.71875 C 70.277344 42.394531 71.363281 42.121094 72.464844 41.902344 C 73.5625 41.683594 74.671875 41.519531 75.785156 41.410156 C 76.902344 41.296875 78.019531 41.242188 79.140625 41.242188 C 80.261719 41.242188 81.382812 41.296875 82.496094 41.40625 C 83.613281 41.515625 84.71875 41.679688 85.820312 41.898438 C 86.917969 42.117188 88.003906 42.390625 89.078125 42.714844 C 90.152344 43.039062 91.207031 43.417969 92.242188 43.84375 C 93.277344 44.273438 94.289062 44.753906 95.277344 45.28125 C 96.265625 45.808594 97.226562 46.382812 98.160156 47.007812 C 99.09375 47.628906 99.992188 48.296875 100.859375 49.007812 C 101.726562 49.71875 102.554688 50.46875 103.347656 51.261719 C 104.140625 52.054688 104.890625 52.882812 105.601562 53.75 C 106.316406 54.613281 106.980469 55.515625 107.605469 56.445312 C 108.226562 57.378906 108.804688 58.335938 109.332031 59.324219 C 109.863281 60.3125 110.339844 61.324219 110.769531 62.359375 C 111.199219 63.398438 111.578125 64.449219 111.902344 65.523438 C 112.226562 66.59375 112.5 67.679688 112.71875 68.78125 C 112.9375 69.878906 113.101562 70.988281 113.210938 72.101562 C 113.324219 73.21875 113.378906 74.335938 113.378906 75.457031 C 113.378906 76.578125 113.324219 77.695312 113.214844 78.808594 C 113.105469 79.925781 112.941406 81.03125 112.722656 82.132812 C 112.503906 83.230469 112.230469 84.316406 111.90625 85.390625 C 111.582031 86.460938 111.203125 87.515625 110.773438 88.550781 C 110.34375 89.585938 109.867188 90.597656 109.339844 91.585938 C 108.808594 92.574219 108.234375 93.535156 107.613281 94.46875 C 106.988281 95.398438 106.324219 96.296875 105.613281 97.164062 C 104.902344 98.03125 104.148438 98.859375 103.355469 99.652344 C 102.5625 100.445312 101.734375 101.199219 100.867188 101.910156 C 100 102.621094 99.101562 103.289062 98.167969 103.910156 C 97.238281 104.53125 96.277344 105.109375 95.289062 105.636719 C 94.300781 106.164062 93.289062 106.644531 92.253906 107.074219 C 91.21875 107.503906 90.164062 107.878906 89.089844 108.207031 C 88.015625 108.53125 86.929688 108.804688 85.832031 109.023438 C 84.730469 109.242188 83.625 109.40625 82.507812 109.515625 C 81.394531 109.625 80.273438 109.679688 79.152344 109.679688 M 108.644531 325.539062 L 49.597656 325.539062 L 49.597656 135.636719 L 108.644531 135.636719 Z M 359.191406 -13.515625 L 19.957031 -13.515625 C 19.007812 -13.527344 18.058594 -13.488281 17.109375 -13.40625 C 16.164062 -13.324219 15.222656 -13.195312 14.289062 -13.023438 C 13.351562 -12.847656 12.429688 -12.625 11.515625 -12.359375 C 10.605469 -12.09375 9.707031 -11.785156 8.824219 -11.433594 C 7.941406 -11.078125 7.078125 -10.683594 6.234375 -10.246094 C 5.390625 -9.804688 4.570312 -9.328125 3.773438 -8.808594 C 2.976562 -8.289062 2.207031 -7.734375 1.464844 -7.136719 C 0.722656 -6.542969 0.0117188 -5.914062 -0.667969 -5.25 C -1.347656 -4.585938 -1.996094 -3.890625 -2.605469 -3.164062 C -3.21875 -2.433594 -3.792969 -1.679688 -4.332031 -0.894531 C -4.871094 -0.113281 -5.367188 0.695312 -5.824219 1.53125 C -6.285156 2.363281 -6.699219 3.214844 -7.074219 4.089844 C -7.449219 4.964844 -7.777344 5.855469 -8.066406 6.761719 C -8.351562 7.667969 -8.59375 8.585938 -8.792969 9.515625 C -8.988281 10.445312 -9.140625 11.382812 -9.242188 12.328125 C -9.347656 13.269531 -9.40625 14.21875 -9.417969 15.167969 L -9.417969 355.691406 C -9.40625 356.640625 -9.347656 357.589844 -9.246094 358.535156 C -9.140625 359.480469 -8.988281 360.417969 -8.792969 361.347656 C -8.597656 362.28125 -8.355469 363.199219 -8.070312 364.105469 C -7.78125 365.011719 -7.453125 365.902344 -7.078125 366.777344 C -6.703125 367.652344 -6.285156 368.503906 -5.828125 369.339844 C -5.371094 370.171875 -4.875 370.980469 -4.335938 371.765625 C -3.796875 372.550781 -3.222656 373.308594 -2.613281 374.035156 C -2 374.765625 -1.355469 375.460938 -0.675781 376.125 C 0.0078125 376.789062 0.71875 377.421875 1.460938 378.015625 C 2.203125 378.609375 2.96875 379.167969 3.765625 379.6875 C 4.5625 380.207031 5.382812 380.6875 6.230469 381.125 C 7.074219 381.5625 7.9375 381.960938 8.820312 382.316406 C 9.703125 382.667969 10.601562 382.980469 11.511719 383.246094 C 12.425781 383.511719 13.351562 383.734375 14.285156 383.910156 C 15.21875 384.085938 16.160156 384.214844 17.109375 384.296875 C 18.058594 384.378906 19.007812 384.414062 19.957031 384.40625 L 359.191406 384.40625 C 360.144531 384.417969 361.09375 384.382812 362.042969 384.300781 C 362.996094 384.21875 363.9375 384.09375 364.875 383.917969 C 365.8125 383.746094 366.738281 383.523438 367.652344 383.261719 C 368.570312 382.996094 369.46875 382.6875 370.355469 382.332031 C 371.242188 381.980469 372.105469 381.582031 372.953125 381.144531 C 373.800781 380.707031 374.621094 380.226562 375.421875 379.710938 C 376.222656 379.191406 376.992188 378.632812 377.738281 378.039062 C 378.484375 377.445312 379.195312 376.8125 379.878906 376.148438 C 380.5625 375.484375 381.210938 374.789062 381.824219 374.058594 C 382.441406 373.328125 383.019531 372.574219 383.558594 371.789062 C 384.097656 371.003906 384.597656 370.191406 385.058594 369.359375 C 385.519531 368.523438 385.9375 367.667969 386.316406 366.792969 C 386.691406 365.917969 387.023438 365.027344 387.3125 364.117188 C 387.601562 363.210938 387.847656 362.289062 388.046875 361.359375 C 388.246094 360.425781 388.398438 359.488281 388.503906 358.539062 C 388.609375 357.59375 388.671875 356.644531 388.683594 355.691406 L 388.683594 15.144531 C 388.671875 14.191406 388.609375 13.242188 388.503906 12.296875 C 388.394531 11.351562 388.242188 10.410156 388.042969 9.480469 C 387.84375 8.546875 387.601562 7.628906 387.3125 6.722656 C 387.023438 5.8125 386.6875 4.921875 386.3125 4.046875 C 385.933594 3.171875 385.515625 2.320312 385.054688 1.484375 C 384.59375 0.652344 384.09375 -0.15625 383.554688 -0.941406 C 383.011719 -1.726562 382.4375 -2.484375 381.820312 -3.210938 C 381.207031 -3.9375 380.558594 -4.636719 379.875 -5.300781 C 379.191406 -5.964844 378.480469 -6.59375 377.734375 -7.1875 C 376.988281 -7.78125 376.21875 -8.335938 375.417969 -8.855469 C 374.617188 -9.375 373.796875 -9.851562 372.949219 -10.289062 C 372.101562 -10.726562 371.238281 -11.121094 370.351562 -11.472656 C 369.46875 -11.828125 368.566406 -12.136719 367.652344 -12.398438 C 366.734375 -12.664062 365.808594 -12.882812 364.871094 -13.054688 C 363.9375 -13.230469 362.992188 -13.355469 362.042969 -13.4375 C 361.09375 -13.519531 360.144531 -13.550781 359.191406 -13.539062 " fill-opacity="1" fill-rule="nonzero"/></svg>