<svg xmlns="http://www.w3.org/2000/svg" xmlns:xlink="http://www.w3.org/1999/xlink" width="500" zoomAndPan="magnify" viewBox="0 0 375 374.999991" height="500" preserveAspectRatio="xMidYMid meet" version="1.0"><defs><clipPath id="2fdc8e8971"><path d="M 0 103.59375 L 375 103.59375 L 375 271.59375 L 0 271.59375 Z M 0 103.59375 " clip-rule="nonzero"/></clipPath><clipPath id="a722895602"><path d="M 42.636719 137.671875 L 337.714844 137.671875 L 337.714844 237.328125 L 42.636719 237.328125 Z M 42.636719 137.671875 " clip-rule="nonzero"/></clipPath><clipPath id="1ba650678e"><path d="M 59.886719 137.671875 L 320.25 137.671875 C 324.824219 137.671875 329.210938 139.488281 332.449219 142.722656 C 335.683594 145.957031 337.5 150.347656 337.5 154.921875 L 337.5 220.078125 C 337.5 224.652344 335.683594 229.042969 332.449219 232.277344 C 329.210938 235.511719 324.824219 237.328125 320.25 237.328125 L 59.886719 237.328125 C 55.3125 237.328125 50.925781 235.511719 47.6875 232.277344 C 44.453125 229.042969 42.636719 224.652344 42.636719 220.078125 L 42.636719 154.921875 C 42.636719 150.347656 44.453125 145.957031 47.6875 142.722656 C 50.925781 139.488281 55.3125 137.671875 59.886719 137.671875 Z M 59.886719 137.671875 " clip-rule="nonzero"/></clipPath><clipPath id="32559287cc"><path d="M 0.636719 0.671875 L 295.679688 0.671875 L 295.679688 100.328125 L 0.636719 100.328125 Z M 0.636719 0.671875 " clip-rule="nonzero"/></clipPath><clipPath id="4a88b4552e"><path d="M 17.886719 0.671875 L 278.25 0.671875 C 282.824219 0.671875 287.210938 2.488281 290.449219 5.722656 C 293.683594 8.957031 295.5 13.347656 295.5 17.921875 L 295.5 83.078125 C 295.5 87.652344 293.683594 92.042969 290.449219 95.277344 C 287.210938 98.511719 282.824219 100.328125 278.25 100.328125 L 17.886719 100.328125 C 13.3125 100.328125 8.925781 98.511719 5.6875 95.277344 C 2.453125 92.042969 0.636719 87.652344 0.636719 83.078125 L 0.636719 17.921875 C 0.636719 13.347656 2.453125 8.957031 5.6875 5.722656 C 8.925781 2.488281 13.3125 0.671875 17.886719 0.671875 Z M 17.886719 0.671875 " clip-rule="nonzero"/></clipPath><clipPath id="1c7b07b65f"><rect x="0" width="296" y="0" height="101"/></clipPath></defs><g clip-path="url(#2fdc8e8971)"><path fill="#dd0707" d="M 306.261719 103.644531 C 313.039062 103.644531 323.195312 103.996094 333.152344 107.023438 C 349.90625 112.117188 358.671875 122.417969 363.074219 130.164062 C 368.265625 139.292969 371.617188 149.417969 373.316406 161.117188 C 374.621094 170.105469 374.984375 180.222656 374.457031 192.949219 C 373.585938 213.875 372.898438 230.402344 362.980469 245.386719 C 358.84375 251.628906 353.558594 256.792969 347.261719 260.734375 C 341.773438 264.171875 335.597656 266.675781 328.386719 268.386719 C 317.351562 271 304.625 271.535156 288.90625 271.535156 C 284.234375 271.535156 279.285156 271.488281 274.046875 271.441406 C 268.113281 271.386719 261.972656 271.328125 255.332031 271.328125 C 211.703125 271.316406 167.617188 269.628906 124.980469 267.996094 C 103.363281 267.164062 81.007812 266.308594 59.082031 265.6875 L 59.054688 265.6875 C 54.671875 265.5625 41.335938 265.183594 28.207031 256.320312 C 19.742188 250.605469 13.070312 242.566406 8.375 232.421875 C 5.105469 225.367188 2.804688 217.25 1.535156 208.296875 C 0.191406 198.820312 -0.0078125 188.523438 0.941406 177.699219 C 1.570312 170.542969 2.351562 161.636719 4.917969 152.460938 C 8.410156 139.953125 14.558594 129.605469 23.191406 121.695312 C 31.757812 113.851562 41.632812 109.242188 54.261719 107.191406 C 63.488281 105.699219 73.46875 105.65625 86.105469 105.605469 C 87.132812 105.601562 88.179688 105.597656 89.253906 105.589844 C 112.082031 105.484375 134.246094 105.339844 295.1875 103.824219 C 296.300781 103.8125 297.59375 103.785156 298.964844 103.753906 C 301.148438 103.703125 303.628906 103.644531 306.265625 103.644531 Z M 306.261719 103.644531 " fill-opacity="1" fill-rule="nonzero"/></g><path fill="#a50000" d="M 295.425781 129.59375 C 308.6875 129.46875 331.777344 127.210938 340.707031 142.914062 C 348.199219 156.09375 349.570312 171.84375 348.738281 191.878906 C 347.96875 210.429688 347.480469 222.15625 341.523438 231.148438 C 329.972656 248.589844 304.59375 245.566406 255.339844 245.558594 C 190.136719 245.542969 124.988281 241.773438 59.8125 239.925781 C 56.871094 239.84375 49.5625 239.652344 42.601562 234.957031 C 22.925781 221.671875 26.070312 185.835938 26.585938 179.953125 C 27.726562 166.972656 29.109375 151.203125 40.566406 140.710938 C 51.046875 131.113281 63.898438 131.484375 89.375 131.363281 C 112.109375 131.253906 134.839844 131.105469 295.429688 129.59375 Z M 295.425781 129.59375 " fill-opacity="1" fill-rule="nonzero"/><path fill="#f4f4f4" d="M 325.628906 197.703125 C 323.703125 217.996094 322.15625 220.179688 320.914062 222.007812 C 311.527344 235.820312 284.753906 231.765625 271.183594 229.960938 C 260.410156 228.53125 253.292969 228.703125 249.859375 217.34375 C 246.246094 205.378906 247.3125 194.082031 248.457031 180.773438 C 250.523438 156.746094 249.839844 153.605469 253.71875 149.808594 C 257.582031 146.027344 263.441406 145.332031 275.164062 143.949219 C 289.238281 142.285156 300.179688 143.90625 308.792969 145.242188 C 316.496094 146.4375 320.347656 147.039062 322.125 148.402344 C 325.203125 150.773438 329.5625 156.304688 325.628906 197.707031 Z M 325.628906 197.703125 " fill-opacity="1" fill-rule="nonzero"/><path fill="#f4f4f4" d="M 228.933594 197.703125 C 227.007812 217.996094 225.460938 220.179688 224.21875 222.007812 C 214.832031 235.820312 188.058594 231.765625 174.488281 229.960938 C 163.714844 228.53125 156.597656 228.703125 153.164062 217.34375 C 149.550781 205.378906 150.617188 194.082031 151.761719 180.773438 C 153.828125 156.746094 153.144531 153.605469 157.023438 149.808594 C 160.886719 146.027344 166.75 145.332031 178.46875 143.949219 C 192.542969 142.285156 203.484375 143.90625 212.097656 145.242188 C 219.800781 146.4375 223.652344 147.039062 225.429688 148.402344 C 228.507812 150.773438 232.867188 156.304688 228.933594 197.707031 Z M 228.933594 197.703125 " fill-opacity="1" fill-rule="nonzero"/><path fill="#f4f4f4" d="M 132.238281 197.703125 C 130.308594 217.996094 128.765625 220.179688 127.519531 222.007812 C 118.136719 235.820312 91.359375 231.765625 77.789062 229.960938 C 67.019531 228.53125 59.902344 228.703125 56.46875 217.34375 C 52.855469 205.378906 53.917969 194.082031 55.0625 180.773438 C 57.132812 156.746094 56.445312 153.605469 60.324219 149.808594 C 64.191406 146.027344 70.050781 145.332031 81.773438 143.949219 C 95.84375 142.285156 106.789062 143.90625 115.402344 145.242188 C 123.105469 146.4375 126.957031 147.039062 128.730469 148.402344 C 131.8125 150.773438 136.167969 156.304688 132.238281 197.707031 Z M 132.238281 197.703125 " fill-opacity="1" fill-rule="nonzero"/><path fill="#f4f4f4" d="M 315.164062 254.164062 C 316.515625 256.0625 316.230469 258.289062 316.167969 258.925781 C 315.835938 262.394531 313.109375 265.191406 309.757812 266.097656 C 305.441406 267.265625 301.203125 265.960938 300.941406 261.195312 C 300.839844 259.332031 300.910156 257.742188 301.460938 256.199219 C 301.65625 255.65625 302.078125 254.542969 302.839844 253.679688 C 305.460938 250.703125 312.5 250.433594 315.164062 254.164062 Z M 315.164062 254.164062 " fill-opacity="1" fill-rule="nonzero"/><path fill="#f4f4f4" d="M 274.972656 254.164062 C 276.324219 256.0625 276.039062 258.289062 275.976562 258.925781 C 275.644531 262.394531 272.917969 265.191406 269.566406 266.097656 C 265.25 267.265625 261.011719 265.960938 260.75 261.195312 C 260.648438 259.332031 260.71875 257.742188 261.269531 256.199219 C 261.464844 255.65625 261.886719 254.542969 262.648438 253.679688 C 265.269531 250.703125 272.308594 250.433594 274.972656 254.164062 Z M 274.972656 254.164062 " fill-opacity="1" fill-rule="nonzero"/><path fill="#f4f4f4" d="M 237.335938 254.164062 C 238.6875 256.0625 238.402344 258.289062 238.339844 258.925781 C 238.007812 262.394531 235.277344 265.191406 231.929688 266.097656 C 227.613281 267.265625 223.375 265.960938 223.113281 261.195312 C 223.007812 259.332031 223.082031 257.742188 223.632812 256.199219 C 223.828125 255.65625 224.25 254.542969 225.007812 253.679688 C 227.632812 250.703125 234.667969 250.433594 237.335938 254.164062 Z M 237.335938 254.164062 " fill-opacity="1" fill-rule="nonzero"/><path fill="#f4f4f4" d="M 202.253906 254.164062 C 203.605469 256.0625 203.320312 258.289062 203.257812 258.925781 C 202.925781 262.394531 200.199219 265.191406 196.847656 266.097656 C 192.535156 267.265625 188.292969 265.960938 188.03125 261.195312 C 187.929688 259.332031 188 257.742188 188.550781 256.199219 C 188.746094 255.65625 189.167969 254.542969 189.929688 253.679688 C 192.554688 250.703125 199.589844 250.433594 202.253906 254.164062 Z M 202.253906 254.164062 " fill-opacity="1" fill-rule="nonzero"/><path fill="#f4f4f4" d="M 167.171875 252.941406 C 168.527344 254.835938 168.242188 257.0625 168.179688 257.699219 C 167.847656 261.171875 165.117188 263.964844 161.769531 264.875 C 157.453125 266.042969 153.210938 264.734375 152.949219 259.96875 C 152.847656 258.105469 152.917969 256.515625 153.472656 254.972656 C 153.667969 254.429688 154.089844 253.316406 154.847656 252.457031 C 157.472656 249.476562 164.507812 249.207031 167.171875 252.941406 Z M 167.171875 252.941406 " fill-opacity="1" fill-rule="nonzero"/><path fill="#f4f4f4" d="M 132.09375 251.652344 C 133.445312 253.550781 133.160156 255.773438 133.097656 256.410156 C 132.765625 259.882812 130.039062 262.675781 126.6875 263.585938 C 122.371094 264.753906 118.132812 263.449219 117.871094 258.679688 C 117.769531 256.816406 117.839844 255.230469 118.390625 253.683594 C 118.585938 253.140625 119.007812 252.03125 119.769531 251.167969 C 122.390625 248.191406 129.429688 247.921875 132.09375 251.652344 Z M 132.09375 251.652344 " fill-opacity="1" fill-rule="nonzero"/><path fill="#f4f4f4" d="M 97.011719 251.433594 C 98.363281 253.328125 98.078125 255.554688 98.015625 256.191406 C 97.683594 259.664062 94.957031 262.457031 91.605469 263.367188 C 87.289062 264.535156 83.050781 263.226562 82.789062 258.460938 C 82.6875 256.597656 82.757812 255.007812 83.308594 253.464844 C 83.503906 252.921875 83.925781 251.808594 84.683594 250.949219 C 87.308594 247.96875 94.347656 247.699219 97.011719 251.433594 Z M 97.011719 251.433594 " fill-opacity="1" fill-rule="nonzero"/><path fill="#f4f4f4" d="M 61.929688 248.523438 C 63.285156 250.417969 62.996094 252.644531 62.9375 253.28125 C 62.605469 256.753906 59.875 259.546875 56.523438 260.457031 C 52.210938 261.625 47.96875 260.320312 47.707031 255.550781 C 47.605469 253.6875 47.675781 252.101562 48.230469 250.554688 C 48.421875 250.011719 48.84375 248.902344 49.605469 248.039062 C 52.230469 245.058594 59.265625 244.792969 61.929688 248.523438 Z M 61.929688 248.523438 " fill-opacity="1" fill-rule="nonzero"/><path fill="#f4f4f4" d="M 32.6875 233.429688 C 34.039062 235.324219 33.753906 237.550781 33.691406 238.1875 C 33.359375 241.660156 30.632812 244.453125 27.28125 245.363281 C 22.964844 246.53125 18.726562 245.226562 18.464844 240.457031 C 18.363281 238.59375 18.433594 237.007812 18.984375 235.460938 C 19.179688 234.917969 19.601562 233.804688 20.363281 232.945312 C 22.984375 229.964844 30.023438 229.699219 32.6875 233.429688 Z M 32.6875 233.429688 " fill-opacity="1" fill-rule="nonzero"/><path fill="#f4f4f4" d="M 19.921875 195.878906 C 21.273438 197.773438 20.988281 200 20.925781 200.636719 C 20.59375 204.109375 17.867188 206.902344 14.515625 207.8125 C 10.199219 208.980469 5.960938 207.675781 5.699219 202.90625 C 5.597656 201.042969 5.667969 199.457031 6.21875 197.910156 C 6.414062 197.367188 6.835938 196.253906 7.597656 195.394531 C 10.21875 192.414062 17.257812 192.148438 19.921875 195.878906 Z M 19.921875 195.878906 " fill-opacity="1" fill-rule="nonzero"/><path fill="#f4f4f4" d="M 25.019531 152.769531 C 26.371094 154.667969 26.085938 156.894531 26.023438 157.527344 C 25.691406 161 22.964844 163.796875 19.613281 164.703125 C 15.296875 165.871094 11.058594 164.566406 10.796875 159.800781 C 10.695312 157.9375 10.765625 156.347656 11.316406 154.800781 C 11.511719 154.261719 11.933594 153.148438 12.691406 152.285156 C 15.316406 149.308594 22.355469 149.039062 25.019531 152.769531 Z M 25.019531 152.769531 " fill-opacity="1" fill-rule="nonzero"/><path fill="#f4f4f4" d="M 48.019531 120.210938 C 49.375 122.105469 49.085938 124.332031 49.027344 124.96875 C 48.695312 128.441406 45.964844 131.234375 42.613281 132.144531 C 38.300781 133.3125 34.058594 132.003906 33.796875 127.238281 C 33.695312 125.375 33.765625 123.785156 34.320312 122.242188 C 34.511719 121.699219 34.9375 120.585938 35.695312 119.726562 C 38.320312 116.746094 45.355469 116.476562 48.019531 120.210938 Z M 48.019531 120.210938 " fill-opacity="1" fill-rule="nonzero"/><path fill="#f4f4f4" d="M 92.375 114.171875 C 93.726562 116.066406 93.441406 118.292969 93.378906 118.929688 C 93.046875 122.402344 90.316406 125.195312 86.96875 126.105469 C 82.652344 127.273438 78.414062 125.96875 78.152344 121.199219 C 78.046875 119.335938 78.117188 117.75 78.671875 116.203125 C 78.867188 115.660156 79.289062 114.546875 80.046875 113.6875 C 82.671875 110.707031 89.707031 110.441406 92.375 114.171875 Z M 92.375 114.171875 " fill-opacity="1" fill-rule="nonzero"/><path fill="#f4f4f4" d="M 135.941406 114.871094 C 137.292969 116.765625 137.007812 118.992188 136.945312 119.628906 C 136.613281 123.101562 133.882812 125.894531 130.535156 126.804688 C 126.21875 127.972656 121.980469 126.667969 121.71875 121.898438 C 121.613281 120.035156 121.6875 118.449219 122.238281 116.902344 C 122.433594 116.359375 122.855469 115.25 123.613281 114.386719 C 126.238281 111.410156 133.273438 111.140625 135.941406 114.871094 Z M 135.941406 114.871094 " fill-opacity="1" fill-rule="nonzero"/><path fill="#f4f4f4" d="M 179.507812 114.871094 C 180.859375 116.765625 180.574219 118.992188 180.511719 119.628906 C 180.179688 123.101562 177.453125 125.894531 174.101562 126.804688 C 169.789062 127.972656 165.546875 126.667969 165.285156 121.898438 C 165.183594 120.035156 165.253906 118.449219 165.808594 116.902344 C 166 116.359375 166.421875 115.25 167.183594 114.386719 C 169.808594 111.410156 176.84375 111.140625 179.507812 114.871094 Z M 179.507812 114.871094 " fill-opacity="1" fill-rule="nonzero"/><path fill="#f4f4f4" d="M 223.074219 114.871094 C 224.429688 116.765625 224.140625 118.992188 224.078125 119.628906 C 223.746094 123.101562 221.019531 125.894531 217.667969 126.804688 C 213.355469 127.972656 209.113281 126.667969 208.851562 121.898438 C 208.75 120.035156 208.820312 118.449219 209.375 116.902344 C 209.566406 116.359375 209.988281 115.25 210.75 114.386719 C 213.375 111.410156 220.410156 111.140625 223.074219 114.871094 Z M 223.074219 114.871094 " fill-opacity="1" fill-rule="nonzero"/><path fill="#f4f4f4" d="M 266.644531 113.949219 C 267.996094 115.847656 267.710938 118.074219 267.648438 118.707031 C 267.316406 122.179688 264.585938 124.976562 261.238281 125.882812 C 256.921875 127.050781 252.683594 125.746094 252.421875 120.980469 C 252.316406 119.117188 252.390625 117.527344 252.941406 115.984375 C 253.136719 115.441406 253.558594 114.328125 254.316406 113.464844 C 256.941406 110.488281 263.976562 110.21875 266.644531 113.949219 Z M 266.644531 113.949219 " fill-opacity="1" fill-rule="nonzero"/><path fill="#f4f4f4" d="M 310.210938 112.660156 C 311.5625 114.558594 311.277344 116.785156 311.214844 117.417969 C 310.882812 120.890625 308.152344 123.6875 304.804688 124.59375 C 300.488281 125.761719 296.25 124.457031 295.988281 119.691406 C 295.886719 117.828125 295.957031 116.238281 296.507812 114.695312 C 296.703125 114.152344 297.125 113.039062 297.882812 112.175781 C 300.507812 109.199219 307.542969 108.929688 310.210938 112.660156 Z M 310.210938 112.660156 " fill-opacity="1" fill-rule="nonzero"/><path fill="#f4f4f4" d="M 347.878906 123.707031 C 349.230469 125.601562 348.945312 127.828125 348.882812 128.464844 C 348.550781 131.9375 345.824219 134.730469 342.472656 135.640625 C 338.160156 136.808594 333.917969 135.503906 333.65625 130.734375 C 333.554688 128.871094 333.625 127.285156 334.179688 125.738281 C 334.371094 125.195312 334.792969 124.082031 335.554688 123.222656 C 338.179688 120.242188 345.214844 119.976562 347.878906 123.707031 Z M 347.878906 123.707031 " fill-opacity="1" fill-rule="nonzero"/><path fill="#f4f4f4" d="M 366.257812 156.835938 C 367.609375 158.734375 367.324219 160.960938 367.261719 161.597656 C 366.929688 165.066406 364.203125 167.863281 360.851562 168.769531 C 356.535156 169.9375 352.296875 168.632812 352.035156 163.867188 C 351.933594 162.003906 352.003906 160.414062 352.554688 158.871094 C 352.75 158.328125 353.171875 157.214844 353.933594 156.351562 C 356.554688 153.375 363.59375 153.105469 366.257812 156.835938 Z M 366.257812 156.835938 " fill-opacity="1" fill-rule="nonzero"/><path fill="#f4f4f4" d="M 368.464844 197.757812 C 369.816406 199.652344 369.53125 201.878906 369.46875 202.515625 C 369.136719 205.988281 366.40625 208.78125 363.058594 209.691406 C 358.742188 210.859375 354.503906 209.550781 354.242188 204.785156 C 354.136719 202.921875 354.210938 201.332031 354.761719 199.789062 C 354.957031 199.246094 355.378906 198.132812 356.136719 197.273438 C 358.761719 194.292969 365.796875 194.023438 368.464844 197.757812 Z M 368.464844 197.757812 " fill-opacity="1" fill-rule="nonzero"/><path fill="#f4f4f4" d="M 353.128906 240.976562 C 354.484375 242.871094 354.195312 245.097656 354.136719 245.734375 C 353.804688 249.207031 351.074219 252 347.722656 252.910156 C 343.410156 254.078125 339.167969 252.769531 338.90625 248.003906 C 338.804688 246.140625 338.875 244.554688 339.429688 243.007812 C 339.621094 242.464844 340.046875 241.351562 340.804688 240.492188 C 343.429688 237.511719 350.464844 237.242188 353.128906 240.976562 Z M 353.128906 240.976562 " fill-opacity="1" fill-rule="nonzero"/><path fill="#007c00" d="M 82.433594 193.152344 C 81.75 193.152344 81.199219 192.597656 81.199219 191.914062 C 81.207031 186.625 82.960938 181.75 86.414062 177.429688 C 89.394531 173.691406 93.589844 170.507812 98.542969 168.222656 C 98.90625 168.054688 99.324219 168.070312 99.667969 168.265625 C 100.015625 168.460938 100.246094 168.8125 100.289062 169.207031 C 100.953125 175.125 102.105469 179.609375 104.144531 184.210938 L 104.300781 184.558594 C 105.246094 186.695312 106.421875 189.355469 107.964844 190.898438 C 108.449219 191.378906 108.449219 192.164062 107.96875 192.648438 C 107.484375 193.132812 106.703125 193.132812 106.21875 192.648438 C 104.347656 190.78125 103.070312 187.886719 102.039062 185.5625 L 101.886719 185.214844 C 99.941406 180.835938 98.765625 176.566406 98.046875 171.222656 C 92.773438 173.980469 83.6875 180.40625 83.667969 191.917969 C 83.667969 192.597656 83.117188 193.152344 82.433594 193.152344 Z M 82.433594 193.152344 " fill-opacity="1" fill-rule="nonzero"/><path fill="#007c00" d="M 97.394531 170.335938 C 99.617188 165.660156 103.644531 160.273438 109.328125 160.804688 C 112.199219 161.074219 114.816406 162.289062 117.160156 163.996094 C 120.125 166.148438 123.109375 167.644531 126.457031 169.238281 C 122.566406 171.769531 118.996094 172.925781 116.648438 173.496094 C 113.625 174.230469 108.703125 175.421875 103.140625 173.496094 C 100.527344 172.59375 98.601562 171.289062 97.394531 170.335938 Z M 97.394531 170.335938 " fill-opacity="1" fill-rule="nonzero"/><path fill="#dd0707" d="M 77.363281 214.304688 C 72.085938 214.304688 68.386719 213.042969 65.972656 207.691406 C 63.878906 203.046875 64.320312 197.066406 67.277344 192.957031 C 70.898438 187.933594 76.15625 187.523438 82.050781 188.371094 C 90.046875 189.515625 93.359375 196.28125 92.539062 203.84375 C 91.847656 210.179688 85.125 215.203125 77.363281 214.304688 Z M 77.363281 214.304688 " fill-opacity="1" fill-rule="nonzero"/><path fill="#dd0707" d="M 108.019531 214.304688 C 102.742188 214.304688 99.039062 213.042969 96.628906 207.691406 C 94.53125 203.046875 94.972656 197.066406 97.929688 192.957031 C 101.550781 187.933594 106.8125 187.523438 112.707031 188.371094 C 120.703125 189.515625 124.011719 196.28125 123.191406 203.84375 C 122.503906 210.179688 115.78125 215.203125 108.019531 214.304688 Z M 108.019531 214.304688 " fill-opacity="1" fill-rule="nonzero"/><path fill="#007c00" d="M 177.457031 193.152344 L 177.453125 193.152344 C 176.769531 193.152344 176.21875 192.597656 176.21875 191.914062 C 176.230469 186.625 177.980469 181.75 181.433594 177.429688 C 184.417969 173.691406 188.609375 170.507812 193.566406 168.222656 C 193.925781 168.054688 194.34375 168.070312 194.691406 168.265625 C 195.035156 168.460938 195.265625 168.8125 195.3125 169.207031 C 195.972656 175.125 197.125 179.609375 199.167969 184.210938 L 199.320312 184.558594 C 200.265625 186.695312 201.441406 189.355469 202.988281 190.898438 C 203.472656 191.378906 203.472656 192.164062 202.988281 192.648438 C 202.507812 193.132812 201.722656 193.132812 201.242188 192.648438 C 199.367188 190.78125 198.089844 187.886719 197.058594 185.5625 L 196.90625 185.214844 C 194.960938 180.835938 193.785156 176.566406 193.066406 171.222656 C 187.796875 173.980469 178.707031 180.40625 178.691406 191.917969 C 178.691406 192.597656 178.136719 193.152344 177.453125 193.152344 Z M 177.457031 193.152344 " fill-opacity="1" fill-rule="nonzero"/><path fill="#007c00" d="M 192.414062 170.335938 C 194.636719 165.660156 198.664062 160.273438 204.351562 160.804688 C 207.21875 161.074219 209.835938 162.289062 212.179688 163.996094 C 215.148438 166.148438 218.128906 167.644531 221.476562 169.238281 C 217.585938 171.769531 214.015625 172.925781 211.671875 173.496094 C 208.644531 174.230469 203.726562 175.421875 198.160156 173.496094 C 195.550781 172.59375 193.625 171.289062 192.414062 170.335938 Z M 192.414062 170.335938 " fill-opacity="1" fill-rule="nonzero"/><path fill="#dd0707" d="M 172.386719 214.304688 C 167.105469 214.304688 163.40625 213.042969 160.992188 207.691406 C 158.898438 203.046875 159.339844 197.066406 162.296875 192.957031 C 165.917969 187.933594 171.175781 187.523438 177.074219 188.371094 C 185.066406 189.515625 188.378906 196.28125 187.558594 203.84375 C 186.871094 210.179688 180.144531 215.203125 172.386719 214.304688 Z M 172.386719 214.304688 " fill-opacity="1" fill-rule="nonzero"/><path fill="#dd0707" d="M 203.042969 214.304688 C 197.761719 214.304688 194.0625 213.042969 191.648438 207.691406 C 189.554688 203.046875 189.996094 197.066406 192.953125 192.957031 C 196.574219 187.933594 201.832031 187.523438 207.730469 188.371094 C 215.722656 189.515625 219.035156 196.28125 218.214844 203.84375 C 217.527344 210.179688 210.800781 215.203125 203.042969 214.304688 Z M 203.042969 214.304688 " fill-opacity="1" fill-rule="nonzero"/><path fill="#007c00" d="M 272.476562 193.152344 C 271.792969 193.152344 271.238281 192.597656 271.242188 191.914062 C 271.25 186.625 273.003906 181.75 276.453125 177.429688 C 279.4375 173.691406 283.632812 170.507812 288.585938 168.222656 C 288.945312 168.054688 289.363281 168.070312 289.710938 168.265625 C 290.058594 168.460938 290.289062 168.8125 290.332031 169.207031 C 290.992188 175.125 292.144531 179.609375 294.1875 184.210938 L 294.339844 184.558594 C 295.285156 186.695312 296.460938 189.355469 298.007812 190.898438 C 298.492188 191.378906 298.492188 192.164062 298.007812 192.648438 C 297.527344 193.132812 296.746094 193.132812 296.261719 192.648438 C 294.390625 190.78125 293.109375 187.886719 292.082031 185.5625 L 291.925781 185.214844 C 289.984375 180.835938 288.804688 176.566406 288.085938 171.222656 C 282.816406 173.980469 273.730469 180.40625 273.710938 191.917969 C 273.710938 192.597656 273.15625 193.152344 272.476562 193.152344 Z M 272.476562 193.152344 " fill-opacity="1" fill-rule="nonzero"/><path fill="#007c00" d="M 287.4375 170.335938 C 289.660156 165.660156 293.683594 160.273438 299.371094 160.804688 C 302.242188 161.074219 304.855469 162.289062 307.203125 163.996094 C 310.167969 166.148438 313.152344 167.644531 316.496094 169.238281 C 312.605469 171.769531 309.039062 172.925781 306.691406 173.496094 C 303.664062 174.230469 298.746094 175.421875 293.183594 173.496094 C 290.570312 172.59375 288.644531 171.289062 287.4375 170.335938 Z M 287.4375 170.335938 " fill-opacity="1" fill-rule="nonzero"/><path fill="#dd0707" d="M 267.40625 214.304688 C 262.128906 214.304688 258.429688 213.042969 256.015625 207.691406 C 253.921875 203.046875 254.363281 197.066406 257.320312 192.957031 C 260.941406 187.933594 266.199219 187.523438 272.09375 188.371094 C 280.089844 189.515625 283.402344 196.28125 282.582031 203.84375 C 281.890625 210.179688 275.167969 215.203125 267.40625 214.304688 Z M 267.40625 214.304688 " fill-opacity="1" fill-rule="nonzero"/><path fill="#dd0707" d="M 298.0625 214.304688 C 292.785156 214.304688 289.082031 213.042969 286.671875 207.691406 C 284.574219 203.046875 285.015625 197.066406 287.972656 192.957031 C 291.59375 187.933594 296.855469 187.523438 302.75 188.371094 C 310.746094 189.515625 314.054688 196.28125 313.234375 203.84375 C 312.546875 210.179688 305.824219 215.203125 298.0625 214.304688 Z M 298.0625 214.304688 " fill-opacity="1" fill-rule="nonzero"/><g clip-path="url(#a722895602)"><g clip-path="url(#1ba650678e)"><g transform="matrix(1, 0, 0, 1, 42, 137)"><g clip-path="url(#1c7b07b65f)"><g clip-path="url(#32559287cc)"><g clip-path="url(#4a88b4552e)"><path fill="#a50000" d="M 0.636719 0.671875 L 295.328125 0.671875 L 295.328125 100.328125 L 0.636719 100.328125 Z M 0.636719 0.671875 " fill-opacity="1" fill-rule="nonzero"/></g></g></g></g></g></g></svg>