<?xml version="1.0" standalone="no"?>
<!DOCTYPE svg PUBLIC "-//W3C//DTD SVG 20010904//EN"
 "http://www.w3.org/TR/2001/REC-SVG-20010904/DTD/svg10.dtd">
<svg version="1.0" xmlns="http://www.w3.org/2000/svg"
 width="345.000000pt" height="185.000000pt" viewBox="0 0 345.000000 185.000000"
 preserveAspectRatio="xMidYMid meet">

<g transform="translate(0.000000,185.000000) scale(0.100000,-0.100000)"
fill="#000000" stroke="none">
<path d="M660 930 l0 -920 1060 0 1060 0 -2 918 -3 917 -1057 3 -1058 2 0
-920z m1035 606 c69 -18 132 -52 146 -79 14 -24 26 -285 15 -313 -5 -14 -15
-9 -55 29 -74 69 -103 81 -196 82 -62 0 -89 -5 -120 -21 -91 -47 -139 -183
-118 -331 14 -94 50 -156 118 -198 44 -27 57 -30 129 -30 64 0 90 5 122 22 60
32 74 49 74 92 0 22 13 63 31 100 53 107 151 161 289 161 37 0 88 -6 113 -14
l47 -14 0 29 c0 44 -25 84 -62 100 -46 20 -202 17 -250 -3 -20 -9 -39 -14 -42
-10 -11 10 -6 201 5 226 19 40 67 51 229 51 138 0 148 -1 206 -28 76 -35 125
-84 161 -162 l28 -60 1 -310 c0 -171 4 -334 8 -362 l8 -53 -136 0 c-101 0
-138 3 -140 12 -3 7 -7 25 -10 41 l-7 28 -37 -30 c-99 -80 -253 -79 -339 1
l-22 21 -58 -26 c-100 -44 -168 -59 -271 -59 -107 1 -170 12 -250 44 -29 11
-54 19 -55 17 -1 -2 -7 -13 -13 -24 -10 -19 -22 -20 -155 -20 l-144 0 0 110 0
110 73 3 c39 2 72 4 72 5 0 2 -9 28 -20 60 -44 124 -50 307 -14 427 52 176
186 321 342 371 69 22 224 25 297 5z m105 -1134 c0 -14 -23 -32 -42 -32 -21 0
-23 11 -6 28 13 13 48 16 48 4z m-480 -18 c0 -11 -8 -14 -27 -12 -39 4 -42 28
-4 28 21 0 31 -5 31 -16z m958 -50 c2 -17 -2 -20 -33 -16 -45 5 -45 -10 0 -27
38 -13 56 -51 38 -80 -30 -48 -125 -50 -131 -2 -3 19 0 22 13 17 67 -25 98 -9
38 21 -42 21 -56 50 -40 84 21 41 109 44 115 3z m150 0 c2 -17 -2 -20 -33 -16
-45 5 -46 -13 0 -28 38 -13 56 -50 38 -79 -30 -48 -125 -50 -131 -2 -3 20 -1
22 15 16 63 -27 95 -7 36 22 -31 15 -39 24 -41 51 -2 18 2 39 8 47 25 30 103
22 108 -11z m-1386 -26 l15 -53 15 50 c15 49 16 50 56 53 l42 3 0 -90 c0 -90
0 -91 -25 -91 -23 0 -25 3 -26 53 l-1 52 -15 -52 c-15 -50 -17 -53 -49 -53
-31 0 -34 3 -47 48 l-15 47 -1 -47 c-1 -44 -3 -48 -26 -48 -25 0 -25 1 -25 90
l0 90 44 0 43 0 15 -52z m208 47 c0 -18 -33 -65 -45 -65 -18 0 -19 9 -5 44 6
16 17 26 30 26 11 0 20 -2 20 -5z m70 -85 l0 -90 -30 0 -30 0 0 90 0 90 30 0
30 0 0 -90z m127 38 l28 -53 3 53 c3 44 6 52 23 52 17 0 19 -7 19 -90 l0 -90
-35 0 c-31 0 -37 5 -59 48 l-25 47 -1 -47 c0 -44 -2 -48 -25 -48 -25 0 -25 1
-25 90 l0 90 35 0 c32 0 37 -5 62 -52z m233 36 c0 -9 -9 -18 -20 -21 -18 -5
-20 -14 -20 -74 l0 -69 -30 0 -30 0 0 70 c0 63 -2 70 -20 70 -13 0 -20 7 -20
20 0 18 7 20 70 20 57 0 70 -3 70 -16z m135 -4 c0 -10 -12 -16 -32 -18 -44 -4
-45 -32 -2 -32 24 0 30 -4 27 -17 -2 -11 -14 -19 -31 -21 -42 -5 -35 -32 9
-32 28 0 35 -3 32 -17 -3 -15 -16 -19 -66 -21 l-62 -3 0 91 0 91 63 -3 c47 -2
62 -7 62 -18z m161 -4 c14 -23 14 -28 -1 -60 -15 -32 -15 -37 -1 -58 22 -32
20 -38 -14 -38 -22 0 -33 7 -44 28 l-15 27 -1 -27 c0 -24 -4 -28 -30 -28 l-30
0 0 90 0 90 60 0 c52 0 62 -3 76 -24z m154 4 c0 -16 -7 -20 -30 -20 -20 0 -30
-5 -30 -15 0 -9 9 -15 25 -15 18 0 25 -5 25 -20 0 -15 -7 -20 -25 -20 -38 0
-32 -28 8 -32 20 -2 32 -8 32 -18 0 -11 -15 -16 -62 -18 l-63 -3 0 91 0 90 60
0 c53 0 60 -2 60 -20z m450 0 c0 -16 -7 -20 -36 -20 -42 0 -43 -23 -1 -28 41
-5 38 -42 -3 -42 -20 0 -30 -5 -30 -15 0 -10 11 -15 35 -15 28 0 35 -4 35 -20
0 -18 -7 -20 -60 -20 l-60 0 0 90 0 90 60 0 c53 0 60 -2 60 -20z"/>
<path d="M2130 827 c-53 -27 -62 -95 -19 -138 17 -17 30 -20 66 -16 62 7 103
48 110 109 5 41 3 46 -18 51 -39 11 -112 8 -139 -6z"/>
<path d="M1900 294 c0 -31 23 -28 28 4 2 15 -2 22 -12 22 -11 0 -16 -9 -16
-26z"/>
</g>
</svg>
