<?xml version="1.0" standalone="no"?>
<!DOCTYPE svg PUBLIC "-//W3C//DTD SVG 20010904//EN"
 "http://www.w3.org/TR/2001/REC-SVG-20010904/DTD/svg10.dtd">
<svg version="1.0" xmlns="http://www.w3.org/2000/svg"
 width="345.000000pt" height="185.000000pt" viewBox="0 0 345.000000 185.000000"
 preserveAspectRatio="xMidYMid meet">

<g transform="translate(0.000000,185.000000) scale(0.100000,-0.100000)"
fill="#000000" stroke="none">
<path d="M451 1464 c-132 -35 -229 -114 -283 -230 -58 -124 -50 -308 19 -422
49 -81 78 -109 162 -150 70 -34 80 -37 170 -37 109 0 156 17 226 78 41 35 89
113 105 167 12 40 0 37 -32 -9 -17 -25 -47 -49 -85 -67 -138 -68 -293 -15
-359 124 -24 49 -29 73 -32 165 -5 116 5 169 44 248 39 78 121 129 207 129 70
0 187 -60 187 -96 0 -9 -4 -13 -9 -10 -17 11 -71 -6 -96 -30 -16 -15 -25 -34
-25 -54 0 -37 23 -85 45 -94 21 -8 79 -8 100 0 23 9 45 58 45 101 -1 141 -201
238 -389 187z"/>
<path d="M2039 1411 c-57 -58 -21 -146 60 -146 56 0 86 30 86 86 0 81 -88 117
-146 60z"/>
<path d="M3150 1420 c-41 -4 -60 -7 -42 -8 l32 -2 0 -379 0 -378 -46 -7 c-26
-3 -57 -6 -70 -6 l-24 0 0 216 c0 243 -5 267 -67 305 -84 52 -254 31 -325 -41
-41 -41 -48 -72 -22 -108 23 -33 88 -31 110 4 24 36 9 76 -34 89 -17 5 -32 13
-32 17 0 16 81 48 123 48 47 0 83 -24 92 -63 3 -12 5 -58 3 -101 l-3 -79 -95
-32 c-52 -18 -109 -39 -127 -48 -63 -33 -87 -89 -63 -151 8 -23 6 -27 -14 -32
-13 -3 -38 -4 -57 -2 -51 5 -58 36 -58 286 l-1 212 69 0 c39 0 73 5 76 10 4 6
-21 10 -69 10 l-75 0 -3 68 -3 67 -71 -67 c-57 -55 -77 -68 -105 -69 l-34 -2
35 -6 35 -6 5 -243 5 -244 28 -24 c24 -20 39 -24 96 -24 37 0 88 7 114 16 42
14 48 14 71 -1 17 -11 49 -18 89 -19 54 -1 70 3 105 27 23 15 44 27 47 27 3 0
5 -14 5 -32 l0 -31 113 6 c61 4 179 7 260 7 96 0 146 4 142 10 -3 6 -22 10
-41 10 l-34 0 0 390 0 390 -32 -2 c-18 -1 -67 -4 -108 -8z m-300 -614 c0 -60
-4 -108 -10 -111 -6 -3 -29 -7 -52 -7 -56 -1 -88 34 -88 95 0 53 21 84 74 107
76 34 76 34 76 -84z"/>
<path d="M1000 1171 c-131 -47 -166 -181 -47 -181 74 0 89 93 19 115 -18 5
-32 13 -32 17 0 4 18 17 40 28 69 35 149 22 170 -29 6 -15 10 -65 8 -111 l-3
-84 -110 -35 c-138 -45 -185 -84 -185 -150 0 -108 154 -157 259 -82 38 27 41
27 41 -9 l0 -30 68 1 c37 0 87 4 112 8 l45 8 -37 2 -37 1 -3 228 c-3 250 -5
255 -67 294 -49 31 -167 35 -241 9z m160 -365 c0 -60 -4 -108 -10 -111 -6 -3
-29 -7 -52 -7 -56 -1 -88 34 -88 95 0 53 21 84 74 108 75 34 76 33 76 -85z"/>
<path d="M1430 1180 c-41 -4 -60 -7 -42 -8 l32 -2 0 -380 0 -380 -29 0 c-17 0
-33 -4 -36 -10 -4 -6 45 -10 140 -10 95 0 144 4 140 10 -3 6 -19 10 -36 10
l-29 0 0 125 c0 69 2 125 5 125 4 0 18 -6 33 -14 44 -22 109 -29 162 -16 114
27 181 118 188 256 6 111 -15 182 -71 237 -79 79 -197 89 -289 25 l-28 -19 0
30 c0 35 8 34 -140 21z m305 -44 c47 -31 60 -80 60 -231 0 -152 -13 -200 -61
-231 -30 -20 -93 -20 -132 0 l-32 17 0 213 0 214 43 21 c45 23 84 22 122 -3z"/>
<path d="M2030 1180 c-41 -4 -60 -7 -42 -8 l32 -2 0 -260 0 -260 -29 0 c-17 0
-33 -4 -36 -10 -4 -6 47 -10 145 -10 98 0 149 4 145 10 -3 6 -22 10 -41 10
l-34 0 0 270 0 270 -32 -2 c-18 -1 -67 -4 -108 -8z"/>
</g>
</svg>
