<?xml version="1.0" standalone="no"?>
<!DOCTYPE svg PUBLIC "-//W3C//DTD SVG 20010904//EN"
 "http://www.w3.org/TR/2001/REC-SVG-20010904/DTD/svg10.dtd">
<svg version="1.0" xmlns="http://www.w3.org/2000/svg"
 width="345.000000pt" height="185.000000pt" viewBox="0 0 345.000000 185.000000"
 preserveAspectRatio="xMidYMid meet">

<g transform="translate(0.000000,185.000000) scale(0.100000,-0.100000)"
fill="#000000" stroke="none">
<path d="M483 1831 c-143 -49 -254 -192 -329 -421 -24 -74 -27 -102 -28 -215
-1 -109 3 -142 22 -203 45 -143 150 -211 282 -183 30 7 71 20 90 29 35 17 35
18 56 137 42 227 43 222 -32 156 -113 -99 -192 -87 -225 33 -40 142 92 426
198 426 38 0 77 -26 98 -64 35 -65 47 -46 75 122 29 169 30 162 -40 187 -55
20 -103 19 -167 -4z"/>
<path d="M1276 1790 c-65 -78 -54 -226 20 -244 89 -23 162 147 104 242 -17 27
-25 32 -59 32 -31 0 -44 -6 -65 -30z"/>
<path d="M1952 1797 c-68 -73 -67 -217 3 -249 92 -42 177 146 112 246 -23 35
-84 37 -115 3z"/>
<path d="M2415 1503 c-52 -9 -66 -15 -94 -39 l-31 -26 0 26 0 26 -89 0 c-50 0
-92 -4 -95 -8 -3 -5 -28 -148 -56 -318 -28 -170 -53 -319 -55 -331 -5 -23 -4
-23 90 -23 52 0 95 1 95 3 3 48 82 473 91 483 15 19 48 18 56 -2 3 -8 -11
-115 -31 -237 -20 -122 -36 -228 -36 -235 0 -10 22 -12 93 -10 l92 3 48 289
c48 285 51 333 24 370 -13 18 -69 34 -102 29z"/>
<path d="M1558 1490 c-73 -22 -139 -89 -166 -169 -19 -55 -15 -151 8 -188 22
-37 44 -50 120 -73 62 -18 73 -37 39 -71 -29 -29 -88 -21 -139 20 l-38 30 -31
-87 c-30 -82 -31 -87 -14 -100 111 -83 265 -80 353 8 45 45 80 132 80 197 0
93 -52 157 -146 182 -57 15 -69 32 -46 61 25 30 73 29 121 -3 l36 -24 32 81
32 81 -25 22 c-42 39 -146 54 -216 33z"/>
<path d="M2742 1488 c-121 -41 -211 -222 -212 -424 0 -176 78 -273 221 -274
98 0 173 49 217 141 43 92 44 89 -47 89 -67 0 -81 -3 -81 -16 0 -23 -55 -74
-79 -74 -39 0 -61 35 -61 94 0 90 -8 86 165 86 l154 0 7 58 c32 226 -21 321
-180 328 -39 2 -86 -2 -104 -8z m119 -149 c16 -16 19 -30 17 -67 l-3 -47 -73
-3 -73 -3 7 28 c23 98 78 139 125 92z"/>
<path d="M682 1431 c-45 -254 -74 -471 -68 -503 37 -201 413 -158 455 53 12
61 81 486 81 500 0 5 -43 9 -95 9 -69 0 -95 -3 -95 -12 0 -7 -18 -123 -40
-257 -31 -192 -43 -249 -58 -264 -16 -16 -23 -17 -41 -8 -11 7 -21 18 -21 25
0 8 18 125 40 260 22 135 40 248 40 251 0 3 -42 5 -94 5 l-94 0 -10 -59z"/>
<path d="M1195 1478 c-6 -19 -105 -632 -105 -652 0 -15 12 -16 92 -14 l92 3
53 310 c28 171 52 322 52 338 l1 27 -90 0 c-64 0 -92 -4 -95 -12z"/>
<path d="M1861 1438 c-12 -60 -101 -605 -101 -619 0 -15 180 -11 185 4 10 24
111 657 107 662 -3 3 -45 5 -93 5 l-88 0 -10 -52z"/>
<path d="M584 866 c-14 -58 -196 -108 -283 -78 -29 10 -30 9 -44 -31 -27 -78
-249 -709 -254 -723 -4 -11 15 -14 104 -14 l109 0 25 78 24 77 96 3 96 3 7
-81 7 -80 105 0 105 0 -5 43 c-4 23 -17 191 -31 372 -28 366 -34 423 -45 445
-7 11 -10 8 -16 -14z m-132 -363 l5 -183 -74 0 c-40 0 -73 2 -73 5 0 10 112
380 118 389 13 21 20 -39 24 -211z"/>
<path d="M2457 462 c-37 -235 -68 -430 -67 -434 0 -14 180 -9 185 4 6 18 115
698 115 719 0 11 -13 22 -34 29 -34 11 -116 83 -116 101 0 5 -3 9 -7 9 -5 0
-39 -192 -76 -428z"/>
<path d="M2942 849 c-30 -37 -96 -75 -144 -83 -21 -4 -38 -10 -38 -14 0 -4 -7
-47 -15 -97 -8 -49 -33 -205 -56 -345 -22 -140 -42 -263 -45 -272 -5 -16 4
-18 90 -18 91 0 96 1 101 23 8 39 134 831 132 833 -1 1 -12 -12 -25 -27z"/>
<path d="M1300 815 c0 -24 -2 -25 -65 -25 -61 0 -65 -1 -65 -22 0 -43 -12 -68
-31 -68 -20 0 -24 -10 -37 -102 -8 -53 -7 -58 10 -58 10 0 18 -7 18 -17 0 -20
-66 -444 -75 -480 -5 -23 -4 -23 90 -23 90 0 95 1 100 23 2 12 21 123 40 247
20 124 38 230 40 237 2 6 21 13 42 15 l38 3 11 78 10 77 -38 0 c-21 0 -38 3
-38 8 1 4 5 26 9 50 8 39 6 44 -19 62 -36 26 -40 25 -40 -5z"/>
<path d="M930 721 c-113 -35 -185 -134 -217 -303 -22 -117 -14 -222 24 -296
48 -97 139 -140 239 -113 l41 11 12 69 c16 98 15 104 -8 91 -33 -17 -78 -11
-107 13 -36 31 -43 106 -19 212 13 62 23 83 54 115 39 41 58 47 91 30 21 -11
26 3 36 98 l7 59 -33 12 c-37 12 -82 13 -120 2z"/>
<path d="M2115 715 c-115 -44 -191 -189 -202 -385 -12 -202 64 -310 217 -310
114 0 202 76 244 208 7 21 5 22 -73 22 -58 0 -81 -4 -81 -12 0 -7 -11 -26 -23
-42 -18 -22 -32 -29 -57 -29 -44 0 -60 24 -60 89 0 88 -8 84 165 84 l153 0 9
68 c19 164 -3 254 -76 296 -44 26 -161 32 -216 11z m115 -135 c22 -12 35 -67
26 -105 -6 -24 -10 -25 -77 -25 l-71 0 7 27 c23 92 65 130 115 103z"/>
<path d="M3115 706 c-119 -55 -187 -203 -189 -411 -1 -90 2 -106 27 -157 41
-83 100 -118 200 -118 94 0 165 52 213 155 35 74 35 75 -51 75 -73 0 -75 -1
-90 -30 -23 -45 -60 -66 -91 -52 -33 16 -46 55 -38 119 l6 53 153 0 c177 0
161 -12 171 130 7 95 -4 152 -38 195 -51 66 -179 85 -273 41z m137 -133 c13
-12 18 -30 18 -70 l0 -53 -70 0 c-64 0 -70 2 -70 20 0 33 26 86 51 104 30 20
48 20 71 -1z"/>
<path d="M1422 433 c-47 -295 -46 -316 5 -366 78 -74 206 -77 315 -8 85 54 95
78 138 353 22 134 41 253 43 266 4 22 4 23 -91 20 l-96 -3 -38 -240 c-47 -299
-43 -283 -75 -291 -51 -13 -53 6 -17 233 19 114 36 229 40 256 l7 47 -95 0
-94 0 -42 -267z"/>
</g>
</svg>
