<?xml version="1.0" standalone="no"?>
<!DOCTYPE svg PUBLIC "-//W3C//DTD SVG 20010904//EN"
 "http://www.w3.org/TR/2001/REC-SVG-20010904/DTD/svg10.dtd">
<svg version="1.0" xmlns="http://www.w3.org/2000/svg"
 width="634.000000pt" height="448.000000pt" viewBox="0 0 634.000000 448.000000"
 preserveAspectRatio="xMidYMid meet">

<g transform="translate(0.000000,448.000000) scale(0.100000,-0.100000)"
fill="#000000" stroke="none">
<path d="M626 4223 c-3 -10 -16 -112 -30 -228 -25 -203 -34 -280 -56 -450 -6
-44 -15 -123 -20 -175 -6 -52 -13 -106 -16 -120 -6 -26 -15 -102 -58 -478 -14
-123 -29 -234 -32 -248 l-6 -24 175 0 175 0 6 68 c4 37 12 94 17 127 5 33 14
98 19 145 13 124 39 331 45 358 5 22 8 22 160 22 152 0 155 0 160 23 5 22 35
267 35 286 0 7 -55 11 -157 13 -134 3 -157 5 -155 18 2 8 8 53 12 100 4 47 14
122 21 167 l12 83 176 2 176 3 17 130 c9 72 17 145 17 163 l1 32 -344 0 c-320
0 -345 -1 -350 -17z"/>
<path d="M1640 3679 c-117 -16 -220 -84 -300 -199 -14 -19 -27 -37 -31 -40
-18 -17 -73 -161 -101 -262 -30 -115 -32 -343 -3 -433 39 -120 90 -185 182
-231 54 -27 66 -29 178 -29 112 0 124 2 178 29 71 35 150 120 187 201 34 72
51 125 45 134 -2 4 -60 8 -128 10 -135 2 -133 3 -157 -59 -21 -53 -46 -70
-101 -70 -79 0 -99 34 -99 170 l0 90 262 2 262 3 14 75 c8 41 15 129 16 195 1
101 -3 130 -22 185 -22 61 -63 124 -105 162 -58 52 -176 81 -277 67z m82 -259
c32 -25 50 -89 46 -165 l-3 -60 -122 -3 c-68 -1 -123 -1 -123 1 0 2 5 30 11
62 27 145 118 223 191 165z"/>
<path d="M2670 3650 c-30 -16 -80 -57 -111 -90 -31 -33 -60 -60 -64 -60 -4 0
-4 36 0 80 l7 80 -160 0 -161 0 -5 -42 c-3 -24 -12 -97 -20 -163 -9 -66 -23
-176 -31 -245 -8 -69 -20 -159 -25 -200 -6 -41 -17 -133 -25 -205 -8 -71 -19
-163 -25 -203 -5 -40 -10 -80 -10 -88 0 -11 28 -14 159 -14 156 0 159 0 164
23 3 12 15 101 27 197 11 96 25 209 31 250 11 75 38 299 39 312 0 3 12 20 26
37 22 26 33 31 70 31 42 0 46 -2 60 -36 14 -33 14 -48 0 -148 -9 -61 -21 -162
-26 -225 -6 -63 -13 -117 -15 -122 -3 -4 -12 -67 -20 -141 -8 -73 -16 -142
-17 -153 -3 -19 4 -20 159 -23 l161 -2 6 27 c3 16 10 75 16 133 5 58 14 134
20 170 11 74 27 206 41 330 15 142 49 200 119 200 41 0 60 -34 60 -107 0 -38
-5 -95 -10 -128 -10 -58 -31 -222 -51 -394 -5 -46 -13 -111 -19 -145 -5 -33
-10 -67 -10 -73 0 -10 39 -13 164 -13 l163 0 17 128 c9 70 25 206 37 302 11
96 27 225 35 285 37 284 28 375 -44 435 -33 27 -43 30 -108 30 -59 0 -82 -5
-124 -27 -60 -31 -139 -99 -159 -137 -16 -30 -31 -34 -31 -8 0 46 -25 99 -63
135 -39 36 -42 37 -116 37 -65 0 -84 -5 -131 -30z"/>
<path d="M4060 3648 c-54 -30 -102 -74 -148 -133 l-23 -30 6 88 5 87 -159 0
c-138 0 -160 -2 -165 -16 -4 -9 -11 -60 -16 -113 -24 -230 -29 -264 -65 -546
-8 -60 -22 -162 -30 -225 -28 -212 -32 -250 -27 -255 3 -3 76 -5 163 -5 l157
0 11 83 c16 114 30 227 41 322 22 198 41 333 50 366 16 55 44 79 94 79 70 0
74 -17 53 -213 -10 -89 -24 -211 -32 -272 -8 -60 -19 -155 -25 -210 -6 -55
-13 -112 -16 -127 l-6 -28 161 0 c88 0 162 4 165 8 3 5 26 174 51 378 25 203
48 380 51 393 8 37 58 81 92 81 36 0 57 -24 66 -72 6 -33 -41 -473 -74 -690
-5 -37 -10 -74 -10 -82 0 -14 22 -16 160 -16 158 0 160 0 164 23 5 25 18 124
41 312 15 128 33 266 57 435 30 219 20 305 -43 370 -39 40 -40 40 -115 40 -66
0 -84 -4 -135 -32 -35 -18 -85 -58 -119 -94 l-59 -63 -11 52 c-22 97 -76 137
-182 136 -62 0 -81 -5 -128 -31z"/>
<path d="M5253 3645 c-66 -31 -137 -90 -193 -161 -23 -29 -89 -167 -106 -221
-27 -89 -54 -247 -54 -325 0 -113 39 -266 77 -306 8 -8 25 -29 40 -49 15 -19
54 -49 87 -66 59 -30 66 -32 181 -32 109 0 125 3 175 27 58 27 84 49 137 112
43 51 91 152 95 196 l3 35 -124 3 c-132 3 -145 -1 -154 -46 -3 -15 -15 -40
-27 -55 -18 -23 -29 -27 -73 -27 -61 0 -69 4 -91 48 -13 25 -16 53 -14 120 l3
87 259 5 259 5 15 65 c8 36 15 125 16 200 1 119 -2 142 -22 194 -40 103 -90
159 -178 201 -45 21 -67 25 -146 24 -84 0 -100 -4 -165 -34z m185 -221 c38
-26 52 -67 52 -148 0 -90 3 -88 -140 -84 l-95 3 2 52 c3 77 53 168 103 186 28
10 55 7 78 -9z"/>
<path d="M2027 2278 c-4 -18 -12 -77 -19 -130 l-12 -97 -55 -3 -55 -3 -12 -73
c-7 -40 -15 -97 -18 -127 l-5 -54 52 -3 52 -3 -1 -40 c0 -22 -6 -85 -13 -140
-14 -116 -38 -320 -52 -450 -5 -49 -14 -112 -19 -138 -6 -26 -10 -66 -10 -87
l0 -40 160 0 c158 0 160 0 164 23 2 12 10 74 16 137 6 63 16 147 21 185 13 92
36 285 49 410 15 144 16 145 94 145 l64 0 6 48 c3 26 8 76 11 112 4 36 9 73
11 83 5 15 -3 17 -62 17 l-67 0 6 68 c4 37 9 95 13 130 l7 62 -160 0 -161 0
-5 -32z"/>
<path d="M4416 2283 c-8 -36 -32 -224 -56 -443 -11 -96 -24 -206 -30 -245 -9
-62 -61 -487 -76 -620 -3 -27 -8 -58 -10 -68 -5 -16 5 -17 157 -15 l163 3 12
70 c6 39 17 115 23 170 18 153 29 239 45 370 8 66 22 179 31 250 9 72 23 182
31 245 22 168 33 262 33 288 1 22 0 22 -158 22 l-159 0 -6 -27z"/>
<path d="M4850 2295 c0 -9 -27 -232 -60 -498 -33 -265 -65 -525 -71 -577 -6
-52 -18 -140 -25 -194 -8 -55 -14 -108 -14 -118 0 -17 12 -18 164 -18 l163 0
12 113 c7 61 17 144 22 182 5 39 14 113 19 165 6 52 15 118 20 145 5 28 11 79
14 115 4 36 11 94 16 130 26 178 68 559 61 565 -2 3 -76 5 -163 5 -135 0 -158
-2 -158 -15z"/>
<path d="M488 2056 c-36 -13 -118 -71 -118 -84 0 -4 -10 -19 -22 -32 -37 -42
-86 -148 -114 -249 -54 -193 -67 -384 -38 -546 10 -58 22 -105 25 -105 4 0 10
-13 14 -29 8 -39 71 -110 112 -127 48 -20 136 -18 187 6 24 11 65 43 91 72
l46 52 -7 -62 -7 -62 161 0 c173 0 172 0 172 58 0 14 4 51 10 81 10 57 24 169
40 316 5 44 14 114 19 155 11 76 21 150 46 360 8 63 15 132 15 153 l0 37 -159
0 -159 0 -7 -65 c-4 -36 -10 -65 -14 -65 -4 0 -15 17 -24 38 -24 52 -37 67
-82 91 -46 24 -129 28 -187 7z m209 -272 c35 -9 63 -97 63 -193 0 -105 -34
-272 -71 -348 -23 -47 -36 -64 -60 -72 -42 -15 -79 3 -101 49 -24 48 -24 190
1 319 28 143 65 221 116 242 25 10 26 10 52 3z"/>
<path d="M1505 2049 c-33 -11 -67 -27 -76 -35 -8 -8 -20 -14 -26 -14 -21 0
-123 -113 -160 -178 -50 -89 -60 -111 -90 -217 -31 -110 -42 -293 -23 -402 24
-147 111 -270 218 -312 73 -29 200 -29 277 0 53 20 55 22 55 57 0 20 7 84 15
141 8 57 13 106 11 108 -1 2 -16 -3 -32 -12 -60 -31 -149 -12 -188 41 -51 70
-44 294 12 415 18 37 48 81 73 104 42 38 46 40 112 40 49 0 70 -4 77 -15 15
-24 19 -9 30 96 5 54 12 115 15 134 8 51 -17 63 -140 67 -82 3 -111 0 -160
-18z"/>
<path d="M3783 2061 c-61 -16 -147 -66 -197 -116 -132 -131 -205 -334 -213
-585 -5 -129 -3 -154 17 -220 55 -189 164 -270 363 -270 94 0 104 2 172 35
105 50 169 129 221 271 13 37 24 69 24 70 0 2 -61 4 -135 4 -120 0 -136 -2
-141 -17 -29 -87 -58 -116 -118 -117 -54 -1 -82 21 -97 78 -10 35 -7 171 3
182 2 2 118 4 258 6 l255 3 13 60 c8 33 15 123 15 200 2 126 0 147 -23 208
-28 78 -91 151 -161 188 -34 18 -63 23 -134 25 -49 2 -105 -1 -122 -5z m112
-245 c38 -11 55 -57 55 -145 l0 -81 -121 0 -121 0 7 48 c13 89 55 161 105 181
24 9 33 9 75 -3z"/>
<path d="M5553 2056 c-50 -16 -119 -55 -163 -92 -60 -51 -159 -219 -185 -314
-3 -14 -10 -34 -15 -45 -28 -67 -40 -336 -19 -437 26 -122 99 -223 194 -269
45 -21 63 -24 175 -24 118 0 128 2 179 28 66 35 139 108 174 175 32 62 67 159
59 166 -3 3 -65 6 -137 6 l-132 0 -6 -27 c-23 -115 -151 -149 -199 -53 -19 37
-25 173 -10 197 6 9 77 13 262 15 l254 3 14 65 c8 36 15 126 16 200 1 121 -2
142 -24 204 -29 80 -89 149 -161 187 -55 28 -209 37 -276 15z m158 -262 c21
-22 24 -37 27 -115 l4 -89 -111 0 c-61 0 -114 0 -118 0 -15 1 -3 92 18 141 28
64 60 89 114 89 32 0 47 -6 66 -26z"/>
<path d="M2537 2043 c-4 -3 -7 -25 -7 -47 0 -23 -6 -88 -15 -146 -28 -202 -62
-475 -71 -585 -16 -176 37 -302 150 -360 58 -29 63 -30 200 -30 185 1 230 17
331 119 59 60 74 83 97 146 33 93 34 96 53 255 9 72 22 180 30 240 8 61 21
164 29 230 8 66 18 135 22 153 l7 32 -167 0 c-95 0 -166 -4 -166 -9 0 -5 -5
-43 -10 -83 -6 -40 -15 -113 -20 -163 -6 -49 -17 -139 -25 -200 -8 -60 -20
-155 -26 -209 -19 -164 -45 -216 -109 -216 -55 0 -70 22 -70 106 0 38 5 88 10
112 6 24 17 103 25 175 8 73 22 186 31 252 8 66 18 146 21 178 l5 57 -159 0
c-88 0 -163 -3 -166 -7z"/>
</g>
</svg>
