<?xml version="1.0" standalone="no"?>
<!DOCTYPE svg PUBLIC "-//W3C//DTD SVG 20010904//EN"
 "http://www.w3.org/TR/2001/REC-SVG-20010904/DTD/svg10.dtd">
<svg version="1.0" xmlns="http://www.w3.org/2000/svg"
 width="800.000000pt" height="375.000000pt" viewBox="0 0 800.000000 375.000000"
 preserveAspectRatio="xMidYMid meet">

<g transform="translate(0.000000,375.000000) scale(0.100000,-0.100000)"
fill="#000000" stroke="none">
<path d="M339 1883 c-185 -1028 -334 -1871 -332 -1875 2 -5 1649 -8 3659 -8
2915 0 3656 3 3659 12 4 10 326 1804 664 3691 l8 47 -3661 0 -3662 0 -335
-1867z m3691 1453 c0 -4 -295 -256 -408 -349 l-34 -27 -170 0 c-139 0 -169 2
-165 14 3 7 60 92 127 190 l121 176 265 0 c145 0 264 -2 264 -4z m2270 0 c0
-5 -358 -311 -414 -354 -27 -21 -38 -22 -198 -22 -132 0 -169 3 -165 13 2 6
59 92 126 190 l122 177 265 0 c145 0 264 -2 264 -4z m-3212 -278 l2 -238 -270
0 -270 0 -2 -667 -3 -668 -302 -3 -303 -2 0 670 0 670 -270 0 -270 0 0 240 0
240 843 -2 842 -3 3 -237z m1817 -668 l0 -905 -265 0 -265 0 -3 908 -2 907
267 -2 268 -3 0 -905z m-1185 425 c36 -9 108 -37 160 -63 78 -38 110 -61 176
-127 66 -66 89 -98 128 -175 56 -116 84 -222 88 -338 l3 -87 -502 -3 -503 -2
0 -32 c0 -79 80 -173 173 -204 94 -31 206 -1 261 70 l27 36 250 0 c286 0 268
8 217 -99 -46 -98 -148 -196 -258 -249 -131 -63 -220 -83 -400 -89 -199 -6
-309 14 -448 82 -163 81 -270 201 -328 370 -25 72 -28 94 -28 220 -1 150 15
229 69 335 97 191 292 327 533 370 73 14 308 4 382 -15z m2238 5 c61 -12 127
-35 190 -65 79 -39 110 -61 177 -129 67 -66 90 -99 129 -176 56 -116 85 -226
89 -340 l2 -85 -502 -3 -503 -2 0 -21 c0 -89 80 -187 176 -215 101 -29 205 -1
260 71 l26 35 249 0 c286 0 268 8 217 -99 -42 -88 -147 -194 -244 -244 -120
-62 -235 -88 -414 -94 -200 -6 -309 14 -450 83 -78 39 -109 61 -175 128 -135
137 -180 257 -179 476 1 117 4 145 27 215 58 178 169 307 337 394 170 88 382
114 588 71z m-4499 -564 c141 -38 249 -123 306 -239 94 -193 59 -450 -88 -642
-17 -22 -128 -139 -248 -260 -243 -247 -293 -314 -314 -422 l-7 -33 341 0 341
0 0 -140 0 -140 -536 0 -536 0 6 88 c30 373 78 462 484 885 218 227 237 260
237 417 0 89 -4 111 -23 147 -29 55 -70 76 -147 77 -79 0 -130 -25 -156 -76
-20 -39 -38 -146 -39 -230 l0 -48 -171 0 -172 0 6 128 c6 137 25 217 70 295
47 80 143 152 247 186 101 32 292 36 399 7z m3721 -836 l0 -90 -105 0 -105 0
0 83 c0 46 3 87 7 90 3 4 51 7 105 7 l98 0 0 -90z m-2759 -207 c70 -39 109
-106 112 -190 l2 -58 -97 -3 -97 -3 -7 46 c-9 64 -30 86 -80 87 -51 0 -82 -15
-86 -44 -9 -53 11 -76 135 -159 208 -140 243 -184 235 -303 -11 -161 -95 -228
-288 -230 -79 0 -104 3 -148 23 -93 42 -142 121 -142 230 l0 51 99 0 99 0 4
-61 c5 -73 21 -89 85 -89 52 0 83 26 83 71 0 49 -15 65 -138 148 -173 116
-219 175 -229 290 -14 152 100 235 314 227 79 -3 98 -7 144 -33z m578 26 c73
-15 128 -59 159 -127 23 -51 26 -72 30 -204 l4 -148 -201 0 -201 0 0 -67 c1
-137 27 -183 105 -183 56 0 76 23 84 97 l6 58 100 0 100 0 -3 -65 c-3 -90 -39
-162 -99 -201 -58 -36 -140 -53 -220 -45 -150 15 -224 74 -258 203 -22 83 -21
439 1 513 42 141 202 210 393 169z m746 -4 c22 -8 53 -29 69 -47 l28 -33 37
36 c96 96 293 73 351 -41 19 -37 20 -60 20 -410 l0 -370 -99 0 -100 0 -3 333
c-3 365 -5 378 -64 390 -39 7 -92 -11 -106 -36 -10 -16 -14 -113 -18 -352 l-5
-330 -100 0 -100 0 -5 335 c-3 184 -9 343 -13 352 -14 27 -76 39 -123 24 -45
-14 -49 -40 -52 -389 l-3 -328 -97 3 -97 3 -3 428 -2 427 100 0 100 0 0 -40 0
-40 38 38 c21 21 53 43 72 49 49 15 128 15 175 -2z m1040 -9 c47 -20 81 -50
103 -91 15 -26 18 -80 22 -380 3 -192 8 -357 10 -365 4 -12 -10 -15 -85 -18
-98 -3 -115 5 -115 56 0 24 -2 23 -44 -16 -59 -54 -109 -69 -187 -54 -121 22
-172 94 -172 242 -1 68 4 93 21 126 34 65 98 114 221 168 120 52 151 79 151
132 0 49 -21 64 -91 64 -70 0 -93 -17 -104 -79 l-7 -41 -95 0 -96 0 6 58 c10
111 64 178 168 207 71 20 238 15 294 -9z m941 5 c23 -10 54 -36 70 -57 l29
-37 3 -384 3 -384 -98 3 -98 3 -5 325 c-3 179 -9 333 -14 343 -11 23 -38 37
-70 37 -38 0 -55 -10 -74 -44 -15 -27 -17 -71 -20 -349 l-3 -318 -97 3 -97 3
-3 428 -2 427 100 0 100 0 0 -42 0 -43 27 34 c53 67 165 90 249 52z m627 -9
c54 -24 92 -62 113 -111 17 -41 34 -179 34 -278 l0 -73 -200 0 -200 0 0 -84
c0 -90 10 -131 38 -152 20 -16 86 -18 112 -4 21 11 40 67 40 118 l0 32 101 0
102 0 -5 -72 c-12 -185 -149 -276 -357 -238 -182 33 -228 112 -238 409 -10
311 27 408 180 463 70 25 212 20 280 -10z m643 0 c80 -41 124 -114 127 -210
l2 -47 -100 0 -100 0 -5 47 c-7 54 -14 65 -56 77 -44 12 -93 -5 -105 -36 -19
-51 4 -78 145 -173 195 -130 232 -180 223 -303 -8 -125 -74 -193 -212 -218
-193 -36 -358 62 -365 216 -4 92 -12 85 100 85 l100 0 0 -55 c0 -71 21 -95 85
-95 69 0 103 50 79 114 -3 9 -61 54 -129 101 -137 94 -196 154 -219 222 -47
137 13 250 152 290 71 20 226 12 278 -15z m-1818 -419 l-3 -428 -100 0 -100 0
-3 415 c-1 228 0 421 3 427 3 9 34 13 105 13 l100 0 -2 -427z"/>
<path d="M3435 2511 c-94 -23 -165 -103 -165 -186 l0 -35 235 0 235 0 0 25 c0
39 -46 121 -84 150 -61 46 -146 64 -221 46z"/>
<path d="M5705 2511 c-95 -25 -165 -103 -165 -186 l0 -35 236 0 237 0 -6 42
c-13 93 -110 177 -214 183 -32 2 -71 1 -88 -4z"/>
<path d="M2814 1065 c-9 -14 -19 -54 -22 -90 l-5 -65 103 0 103 0 -5 70 c-7
94 -22 110 -99 110 -51 0 -61 -3 -75 -25z"/>
<path d="M4623 765 c-45 -30 -87 -64 -93 -74 -18 -35 -12 -125 11 -155 28 -36
95 -37 128 -2 26 28 44 130 39 226 l-3 60 -82 -55z"/>
<path d="M6121 1064 c-16 -21 -21 -41 -21 -90 l0 -64 96 0 96 0 -4 76 c-4 91
-16 104 -94 104 -45 0 -56 -4 -73 -26z"/>
</g>
</svg>
