<?xml version="1.0" standalone="no"?>
<!DOCTYPE svg PUBLIC "-//W3C//DTD SVG 20010904//EN"
 "http://www.w3.org/TR/2001/REC-SVG-20010904/DTD/svg10.dtd">
<svg version="1.0" xmlns="http://www.w3.org/2000/svg"
 width="345.000000pt" height="185.000000pt" viewBox="0 0 345.000000 185.000000"
 preserveAspectRatio="xMidYMid meet">

<g transform="translate(0.000000,185.000000) scale(0.100000,-0.100000)"
fill="#000000" stroke="none">
<path d="M27 1253 c-3 -5 -8 -33 -12 -63 -3 -30 -9 -63 -11 -72 -5 -16 2 -18
51 -18 l56 0 -6 -32 c-18 -109 -65 -411 -65 -423 0 -12 17 -15 84 -15 79 0 84
1 89 23 3 12 20 117 38 234 l33 212 55 3 56 3 6 40 c3 22 9 57 12 78 l6 37
-194 0 c-107 0 -196 -3 -198 -7z"/>
<path d="M766 1233 c-3 -16 -15 -89 -26 -163 -18 -114 -43 -274 -65 -407 l-6
-33 169 0 169 0 7 43 c4 23 9 57 12 75 l6 32 -81 0 c-58 0 -81 4 -81 13 0 6
16 109 35 227 19 118 35 221 35 228 0 9 -23 12 -84 12 -84 0 -84 0 -90 -27z"/>
<path d="M1580 1246 c0 -8 -90 -581 -94 -598 -4 -17 9 -18 159 -18 l163 0 6
28 c3 15 8 48 12 75 l6 47 -71 0 c-61 0 -71 2 -71 18 0 9 16 113 35 230 19
118 35 215 35 218 0 2 -40 4 -90 4 -49 0 -90 -2 -90 -4z"/>
<path d="M510 1151 c-61 -5 -75 -9 -78 -23 -4 -20 28 -23 136 -12 47 5 61 11
65 25 4 15 0 19 -21 17 -15 -1 -61 -4 -102 -7z"/>
<path d="M1190 1151 c-61 -5 -75 -9 -78 -23 -4 -20 17 -22 130 -12 53 5 67 10
71 25 4 15 0 19 -21 17 -15 -1 -61 -4 -102 -7z"/>
<path d="M401 1064 c-142 -71 -178 -309 -62 -407 72 -60 180 -60 251 0 29 24
70 90 70 113 0 6 -28 10 -70 10 -65 0 -73 -2 -95 -27 -32 -38 -59 -23 -63 36
l-3 41 126 0 127 0 -3 79 c-5 94 -22 124 -89 159 -60 30 -122 29 -189 -4z
m129 -88 c6 -8 10 -25 8 -38 -2 -19 -10 -23 -45 -26 -46 -3 -51 4 -32 41 21
39 48 48 69 23z"/>
<path d="M1105 1075 c-81 -28 -155 -147 -155 -248 0 -26 2 -27 51 -27 l52 0
-7 -57 c-4 -31 -9 -67 -12 -78 -4 -16 1 -24 21 -33 71 -32 159 -22 215 25 29
24 70 90 70 113 0 6 -29 10 -71 10 -64 0 -73 -2 -91 -26 -13 -16 -28 -24 -42
-22 -18 3 -21 11 -24 51 l-3 47 127 0 126 0 -3 79 c-5 94 -22 124 -89 159 -50
25 -106 28 -165 7z m103 -97 c7 -7 12 -25 12 -40 0 -27 -2 -28 -45 -28 -51 0
-57 12 -24 54 22 28 39 32 57 14z"/>
<path d="M1883 1069 c-71 -35 -123 -124 -126 -216 l-2 -48 49 -3 48 -3 -6 -51
c-4 -28 -10 -64 -13 -79 -5 -25 -1 -30 23 -40 79 -30 156 -19 217 32 20 16 48
55 63 85 37 75 40 197 8 259 -42 81 -166 111 -261 64z m119 -144 c14 -31 -4
-130 -29 -157 -20 -22 -59 -24 -67 -2 -14 37 2 142 26 172 18 21 57 14 70 -13z"/>
<path d="M2512 1078 c-116 -26 -163 -173 -78 -245 18 -15 48 -36 65 -46 42
-22 35 -41 -15 -45 -29 -2 -50 4 -77 22 l-36 25 -6 -37 c-4 -20 -9 -49 -11
-64 -6 -33 19 -52 89 -68 120 -26 225 39 234 147 5 63 -20 103 -87 140 -51 29
-62 46 -34 57 26 10 48 7 86 -12 l36 -19 7 54 c8 62 -1 79 -46 87 -65 13 -86
14 -127 4z"/>
<path d="M3250 1078 c-18 -10 -26 -25 -32 -58 -18 -112 -18 -110 -43 -110 -51
0 -16 -60 61 -105 54 -32 57 -58 6 -63 -22 -2 -48 5 -76 22 l-43 25 -7 -46
c-11 -85 -10 -89 37 -108 50 -20 143 -23 177 -5 64 33 100 87 100 149 0 61
-18 89 -82 128 -32 20 -57 41 -55 47 6 17 62 19 101 2 39 -16 38 -18 50 56 6
32 3 39 -19 54 -33 22 -142 29 -175 12z"/>
<path d="M2220 1045 l0 -35 74 0 c77 0 86 5 86 51 0 17 -8 19 -80 19 l-80 0 0
-35z"/>
<path d="M2746 1058 c-12 -47 -10 -48 74 -48 72 0 80 2 80 19 0 11 3 26 6 35
5 14 -5 16 -74 16 -74 0 -80 -2 -86 -22z"/>
<path d="M2936 1053 c-7 -35 -66 -407 -66 -417 0 -4 35 -6 78 -4 l77 3 17 105
c9 58 20 115 23 128 7 27 60 62 96 62 24 0 26 4 37 72 6 40 9 74 7 76 -8 8
-52 -8 -88 -32 l-36 -25 6 30 6 29 -76 0 c-74 0 -75 0 -81 -27z"/>
<path d="M2183 810 l-30 -180 79 0 c43 0 78 3 78 8 0 4 11 72 25 152 14 80 25
157 25 173 l0 27 -73 0 -74 0 -30 -180z"/>
<path d="M2743 978 c-6 -7 -20 -78 -32 -158 -12 -80 -25 -155 -28 -167 -5 -22
-3 -23 75 -23 l79 0 27 163 c14 90 26 171 26 180 0 14 -11 17 -69 17 -43 0
-72 -5 -78 -12z"/>
<path d="M1376 834 c-17 -44 -8 -54 49 -54 37 0 55 4 55 13 0 6 3 22 6 35 6
21 3 22 -49 22 -41 0 -56 -4 -61 -16z"/>
</g>
</svg>
