<?xml version="1.0" standalone="no"?>
<!DOCTYPE svg PUBLIC "-//W3C//DTD SVG 20010904//EN"
 "http://www.w3.org/TR/2001/REC-SVG-20010904/DTD/svg10.dtd">
<svg version="1.0" xmlns="http://www.w3.org/2000/svg"
 width="345.000000pt" height="185.000000pt" viewBox="0 0 345.000000 185.000000"
 preserveAspectRatio="xMidYMid meet">

<g transform="translate(0.000000,185.000000) scale(0.100000,-0.100000)"
fill="#000000" stroke="none">
<path d="M70 925 l0 -925 1655 0 1655 0 0 925 0 925 -1655 0 -1655 0 0 -925z
m1331 708 c-16 -32 -53 -110 -84 -173 -30 -63 -186 -379 -345 -703 l-291 -587
-65 0 c-53 0 -66 3 -70 18 -9 31 -266 1219 -266 1231 0 8 49 11 160 11 88 0
160 -4 160 -8 0 -18 101 -576 105 -581 3 -2 20 29 39 70 47 104 357 762 363
772 2 4 76 7 164 7 l159 0 -29 -57z m730 -226 c102 -68 105 -188 7 -260 -14
-11 -49 -22 -77 -25 -62 -6 -126 23 -158 71 -44 65 -20 172 49 216 47 30 133
29 179 -2z m939 2 c75 -42 102 -143 58 -209 -40 -58 -72 -75 -142 -75 -70 0
-120 26 -150 76 -36 61 -8 167 56 208 45 28 127 28 178 0z m-1521 -368 c99
-31 151 -77 203 -179 27 -54 32 -76 35 -160 10 -217 -59 -373 -209 -471 -198
-129 -474 -68 -558 122 -75 172 -27 434 106 577 105 113 275 157 423 111z
m1166 3 c33 -8 63 -18 66 -22 3 -4 -18 -58 -47 -119 -53 -110 -54 -112 -79
-103 -15 6 -46 10 -70 10 -35 0 -52 -6 -78 -30 -101 -88 -118 -332 -26 -370
15 -7 56 -10 91 -8 l63 3 17 -90 c24 -125 25 -121 -25 -134 -183 -45 -340 -4
-428 113 -48 64 -69 140 -69 252 0 188 75 352 200 439 100 69 256 93 385 59z
m-560 -21 c-3 -16 -28 -203 -55 -418 -28 -214 -53 -400 -56 -412 -4 -23 -7
-23 -144 -23 -77 0 -140 3 -140 6 0 3 23 177 51 387 28 210 53 406 56 435 l6
52 143 0 144 0 -5 -27z m940 5 c-2 -13 -27 -201 -55 -418 -28 -217 -53 -405
-55 -417 -5 -23 -8 -23 -145 -23 -77 0 -140 3 -140 6 0 3 23 177 51 387 28
210 53 406 56 435 l6 52 144 0 143 0 -5 -22z"/>
<path d="M1380 797 c-80 -40 -135 -264 -88 -353 31 -58 103 -54 145 9 47 71
75 214 54 279 -20 60 -67 87 -111 65z"/>
</g>
</svg>
